<?xml version="1.0" encoding="UTF-8"?>
<svg xmlns="http://www.w3.org/2000/svg" viewBox="0 0 576.36 595.28">
  <defs>
    <style>
      .cls-1 {
        fill: #fff;
      }

      .cls-2, .cls-3 {
        fill: #2297d5;
      }

      .cls-4 {
        isolation: isolate;
      }

      .cls-3, .cls-5 {
        mix-blend-mode: multiply;
      }

      .cls-6 {
        fill: #f4963a;
      }
    </style>
  </defs>
  <g class="cls-4">
    <g id="Lager_3" data-name="Lager 3" class="cls-5">
      <g class="cls-5">
        <path class="cls-6" d="m265.85,228.25h0c6.26,0,11.35,5.09,11.35,11.35v181.56h-22.7v-181.56c0-6.26,5.09-11.35,11.35-11.35Z"/>
        <rect class="cls-6" x="201.33" y="221.67" width="23.58" height="160.01" rx="11.35" ry="11.35" transform="translate(130.65 -58.36) rotate(22.34)"/>
        <path class="cls-3" d="m322.77,349.81l-1.5,2.39c-2.16,3.47-6.73,4.53-10.2,2.36l-144.56-90.25-15.9-21.03,25.2,6.13.04-.06,144.56,90.26c3.47,2.16,4.52,6.73,2.36,10.2Z"/>
        <path class="cls-6" d="m301.05,195.04v25.64c0,3.85-3.12,6.97-6.97,6.97s-6.96-3.12-6.96-6.97v-1.89h-9.2c-.07,3.85-3.23,6.96-7.11,6.96h-9.82c-3.93,0-7.12-3.19-7.12-7.11v-12.87c-5.79,1.2-12.06,2.16-18.99,5.43-12.45,5.86-30.07,20.9-19.94,2.54,5.77-10.46,18.68-29.93,44.01-30.71.57-.02,1.11-.01,1.63.02.13-.02.28-.02.42-.02h9.82c3.93,0,7.12,3.19,7.12,7.12v7.12h9.18v-2.22c0-3.85,3.12-6.97,6.96-6.97,1.93,0,3.67.78,4.93,2.04,1.26,1.26,2.04,3,2.04,4.93Z"/>
        <path class="cls-6" d="m150.2,377.3h48.31v19.41c0,13.33-10.82,24.15-24.15,24.15h0c-13.33,0-24.15-10.82-24.15-24.15v-19.41h0Z" transform="translate(162.65 -36.27) rotate(22.06)"/>
        <polygon class="cls-2" points="436.76 420.26 378.47 328.69 378.96 360.33 385.74 360.33 408.36 419.95 301.97 420.26 325.81 360.33 339.57 360.33 320.31 264.33 377.48 264.64 377.63 274.51 377.56 264.68 388.56 290.93 377.96 295.9 378.15 308.09 446.09 420.23 436.76 420.26"/>
        <path class="cls-2" d="m444.74,231.01v2.75h-22.16v9.48h-14.53v6.42h-19.87c-.99,1.35-2.12,2.61-3.38,3.76-4.93,4.48-11.73,7.25-19.24,7.25h-61.15v-24.77c0-13.67,13.19-30.26,28.22-30.26l33.93.61c9.07,0,16.74,5.82,21.4,13.45h20.09v3.97h14.53v7.34h22.16Z"/>
        <rect class="cls-1" x="322.68" y="233.84" width="24.15" height="1.53"/>
        <rect class="cls-1" x="322.98" y="221.15" width="24.15" height="1.53"/>
        <rect class="cls-1" x="322.68" y="246.37" width="24.15" height="1.53"/>
      </g>
    </g>
  </g>
</svg>