<?xml version="1.0" encoding="utf-8"?>
<!-- Generator: Adobe Illustrator 28.0.0, SVG Export Plug-In . SVG Version: 6.00 Build 0)  -->
<svg version="1.1" id="Lager_1" xmlns="http://www.w3.org/2000/svg" xmlns:xlink="http://www.w3.org/1999/xlink" x="0px" y="0px"
	 viewBox="0 0 1920 1080" style="enable-background:new 0 0 1920 1080;" xml:space="preserve">
<style type="text/css">
	.st0{fill:#1796D4;}
	.st1{fill:#7F8080;}
	.st2{fill:#EDE9EF;}
	.st3{fill:#AEA3B4;}
	.st4{fill:#FFFFFF;}
	.st5{fill:#AA751A;}
	.st6{fill:#472121;}
	.st7{fill:#D9DBDA;}
	.st8{fill:#535353;}
	.st9{fill:#CECDCE;stroke:#9A9A9B;stroke-width:0.7996;stroke-miterlimit:10;}
	.st10{fill:#D9DBDA;stroke:#8B8A8A;stroke-width:0.7996;stroke-miterlimit:10;}
	.st11{fill:#383039;}
	.st12{fill:#252626;}
	.st13{opacity:0.99;fill:#252626;}
	.st14{fill:#ECEDED;}
	.st15{fill:#FAF8F7;}
	.st16{fill:#94877D;}
	.st17{fill:#E6344B;}
	.st18{fill:#FDEED6;}
	.st19{fill:#F6B048;}
	.st20{fill:#959293;}
	.st21{fill:#7E7D75;}
	.st22{fill:#616464;stroke:#808182;stroke-width:0.7996;stroke-miterlimit:10;}
	.st23{fill:#0B0B0B;}
	.st24{fill:#E1DDDC;}
	.st25{fill:#A7A5A6;}
	.st26{fill:#E8E8E9;}
	.st27{fill:none;stroke:#808182;stroke-width:0.7996;stroke-miterlimit:10;}
	.st28{fill:#838383;}
	.st29{fill:#BC7D31;}
	.st30{fill:#DF9B3A;}
	.st31{fill:#BEBCC2;}
	.st32{fill:#FFFFFF;stroke:#FFFFFF;stroke-width:0.7996;stroke-miterlimit:10;}
	.st33{fill:#302B74;}
	.st34{fill:#BBC0C4;}
	.st35{fill:#C0BFBF;}
</style>
<rect x="3.6" y="79.29" class="st0" width="1909.4" height="967.49"/>
<g>
	<g>
		<path class="st1" d="M1345.72,408.05c-50.13,0-90.75,40.64-90.75,90.75c0,50.13,40.62,90.77,90.75,90.77
			c50.13,0,90.75-40.64,90.75-90.77C1436.47,448.69,1395.85,408.05,1345.72,408.05z M1409.89,475.98l-6.58,3.79
			c-0.86,0.49-1.8,0.76-2.73,0.79c0.22,0.69,0.44,1.38,0.62,2.09c-0.25-0.69-0.54-1.38-0.89-2.07c-0.25-0.59-0.52-1.18-0.81-1.75
			c-1.87,0.12-3.74-0.66-4.95-2.17c-0.2-0.25-0.37-0.52-0.54-0.79l-1.28-2.22c-1.03-1.8-1.03-3.94-0.15-5.69
			c0.3-0.62,0.71-1.21,1.23-1.65c0.34-0.34,0.71-0.64,1.13-0.89l6.58-3.79c2.86-1.65,6.58-0.67,8.23,2.22l0.52,0.89
			c0.22,0.25,0.39,0.52,0.57,0.81l1.26,2.19C1413.76,470.64,1412.75,474.33,1409.89,475.98z"/>
		<path class="st1" d="M1409.89,475.98l-6.58,3.79c-0.86,0.49-1.8,0.76-2.73,0.79c0.22,0.69,0.44,1.38,0.62,2.09
			c-0.25-0.69-0.54-1.38-0.89-2.07c-0.25-0.59-0.52-1.18-0.81-1.75c-1.87,0.12-3.74-0.66-4.95-2.17c-0.2-0.25-0.37-0.52-0.54-0.79
			l-1.28-2.22c-1.03-1.8-1.03-3.94-0.15-5.69c0.3-0.62,0.71-1.21,1.23-1.65c0.34-0.34,0.71-0.64,1.13-0.89l6.58-3.79
			c2.86-1.65,6.58-0.67,8.23,2.22l0.52,0.89c0.22,0.25,0.39,0.52,0.57,0.81l1.26,2.19C1413.76,470.64,1412.75,474.33,1409.89,475.98
			z"/>
		<path class="st1" d="M1399.5,478.84c-1.87,0.12-3.74-0.66-4.95-2.17c-0.2-0.25-0.37-0.52-0.54-0.79l-1.28-2.22
			c-1.03-1.8-1.03-3.94-0.15-5.69c0.42,0.49,0.79,0.99,1.18,1.48C1395.95,472.39,1397.87,475.51,1399.5,478.84z"/>
		<path class="st1" d="M1409.89,475.98l-6.58,3.79c-0.86,0.49-1.8,0.76-2.73,0.79c-0.1,0.02-0.17,0.02-0.27,0.02
			c-0.25-0.59-0.52-1.18-0.81-1.75c-1.87,0.12-3.74-0.66-4.95-2.17l-0.74-1.28c-1.08-1.9-1.03-4.14-0.05-5.94
			c0.3-0.52,0.67-1.01,1.11-1.43c0.34-0.32,0.74-0.62,1.16-0.86l6.58-3.82c2.56-1.48,5.84-0.84,7.66,1.4
			c0.22,0.25,0.39,0.52,0.57,0.81l1.26,2.19C1413.76,470.64,1412.75,474.33,1409.89,475.98z"/>
		<path class="st1" d="M1401.2,482.66c-0.25-0.69-0.54-1.38-0.89-2.07c-0.25-0.59-0.52-1.18-0.81-1.75
			c-1.87,0.12-3.74-0.66-4.95-2.17c-0.2-0.25-0.37-0.52-0.54-0.79l-1.28-2.22c-1.03-1.8-1.03-3.94-0.15-5.69
			c0.3-0.62,0.71-1.21,1.23-1.65c0.37,0.57,0.71,1.13,1.06,1.7c2.04,3.4,3.77,7,5.1,10.79c0.02,0,0.02,0,0.02,0
			c0.2,0.57,0.42,1.16,0.59,1.75C1400.8,481.25,1401.02,481.94,1401.2,482.66z"/>
		<path class="st1" d="M1408.81,474.28l-6.58,3.79c-0.71,0.39-1.45,0.64-2.24,0.74c0,0,0,0-0.02,0c-0.15,0.02-0.3,0.02-0.47,0.02
			c-1.87,0.12-3.74-0.66-4.95-2.17c-0.2-0.25-0.37-0.52-0.54-0.79l-1.28-2.22c-1.03-1.8-1.03-3.94-0.15-5.69
			c0.3-0.62,0.71-1.21,1.23-1.65c0.34-0.34,0.71-0.64,1.13-0.89l6.58-3.79c2.86-1.65,6.58-0.67,8.23,2.22l0.52,0.89l0.74,1.31
			C1412.67,468.91,1411.66,472.63,1408.81,474.28z"/>
	</g>
	<g>
		<circle class="st2" cx="1338.52" cy="495.56" r="90.75"/>
		<circle class="st3" cx="1339.09" cy="501.78" r="59.3"/>
		<path class="st3" d="M1405.78,470.96l-12.78,7.38c-1.17,0.67-2.67,0.27-3.34-0.9l-4.85-8.39c-0.67-1.16-0.27-2.67,0.9-3.34
			l12.78-7.38c1.17-0.67,2.67-0.27,3.34,0.9l4.85,8.39C1407.35,468.78,1406.95,470.29,1405.78,470.96z"/>
		<circle class="st4" cx="1335.16" cy="496.21" r="61.19"/>
		<path class="st4" d="M1404.7,469.25l-12.78,7.38c-1.17,0.67-2.67,0.27-3.34-0.9l-4.85-8.39c-0.67-1.17-0.27-2.67,0.9-3.34
			l12.78-7.38c1.16-0.67,2.67-0.27,3.34,0.9l4.85,8.39C1406.27,467.08,1405.86,468.58,1404.7,469.25z"/>
		<circle class="st5" cx="1334.78" cy="495.08" r="55.92"/>
		<path class="st6" d="M1375.64,506.38c-25.23,8.66-20.29,44.23-47.45,35.02c-21.09-7.15-44.43-28.21-44.43-50.46
			s31.22-45.94,53.47-45.94C1359.48,445,1396.68,499.16,1375.64,506.38z"/>
	</g>
	<g>
		<path class="st7" d="M1162.36,833.77H626.57c-6.46,0-11.69-5.24-11.69-11.69V461.39c0-6.46,5.24-11.69,11.69-11.69h535.79
			c6.46,0,11.69,5.24,11.69,11.69v360.69C1174.05,828.54,1168.82,833.77,1162.36,833.77z"/>
		<rect x="674.75" y="455.34" class="st8" width="436.05" height="9.04"/>
		<path class="st9" d="M970.88,805.53H813.53c-2.41,0-4.36-1.95-4.36-4.36V699.18c0-2.41,1.95-4.36,4.36-4.36h157.35
			c2.41,0,4.36,1.95,4.36,4.36v101.99C975.23,803.58,973.28,805.53,970.88,805.53z"/>
		<path class="st7" d="M1200.41,293.8H581.74c-9.75,0-16.64,9.09-13.57,17.9L614.84,446c1.95,5.6,7.46,9.38,13.66,9.34l529.28-3.15
			c6.23-0.04,11.72-3.91,13.56-9.58l42.72-131.15C1216.92,302.69,1210.05,293.8,1200.41,293.8z"/>
		<path class="st10" d="M1112.94,675.17H674.55c-2,0-3.62-1.62-3.62-3.62V494.1c0-2,1.62-3.62,3.62-3.62h438.39
			c2,0,3.62,1.62,3.62,3.62v177.46C1116.55,673.55,1114.94,675.17,1112.94,675.17z"/>
		<path class="st11" d="M1170.88,456.47l-550.05-1.11c-5.55-0.01-10.43-3.71-12.02-9.1l-37.69-128.15
			c-2.41-8.18,3.63-16.4,12.04-16.4h617.92c8.11,0,14.1,7.68,12.23,15.69l-30.19,129.26
			C1181.78,452.42,1176.71,456.48,1170.88,456.47z"/>
		<rect x="811.44" y="636.93" class="st12" width="139.32" height="27.11"/>
		<rect x="717.56" y="504.18" class="st12" width="24.1" height="12.8"/>
		<rect x="747.94" y="504.18" class="st12" width="24.1" height="12.8"/>
		<rect x="960.64" y="504.18" class="st12" width="24.1" height="12.8"/>
		<rect x="778.33" y="504.18" class="st12" width="24.1" height="12.8"/>
		<rect x="808.71" y="504.18" class="st12" width="24.1" height="12.8"/>
		<rect x="839.1" y="504.18" class="st12" width="24.1" height="12.8"/>
		<rect x="869.48" y="504.18" class="st12" width="24.1" height="12.8"/>
		<rect x="899.87" y="504.18" class="st12" width="24.1" height="12.8"/>
		<rect x="685.1" y="504.18" class="st12" width="26.17" height="12.8"/>
		<rect x="930.25" y="504.18" class="st12" width="24.1" height="12.8"/>
		<rect x="991.02" y="504.18" class="st12" width="24.1" height="12.8"/>
		<rect x="1021.41" y="504.18" class="st12" width="24.1" height="12.8"/>
		<rect x="1051.79" y="504.18" class="st12" width="24.1" height="12.8"/>
		<rect x="1082.17" y="504.18" class="st12" width="24.1" height="12.8"/>
		<rect x="685.29" y="522.69" class="st12" width="26.74" height="22.59"/>
		<rect x="715.01" y="522.69" class="st12" width="25.98" height="22.59"/>
		<rect x="743.99" y="522.69" class="st12" width="25.98" height="22.59"/>
		<rect x="772.96" y="522.69" class="st12" width="25.98" height="22.59"/>
		<rect x="801.93" y="522.69" class="st12" width="25.98" height="22.59"/>
		<rect x="830.9" y="522.69" class="st12" width="25.98" height="22.59"/>
		<rect x="859.87" y="522.69" class="st12" width="25.98" height="22.59"/>
		<rect x="888.84" y="522.69" class="st12" width="25.98" height="22.59"/>
		<rect x="917.81" y="522.69" class="st12" width="25.98" height="22.59"/>
		<rect x="946.78" y="522.69" class="st12" width="25.98" height="22.59"/>
		<rect x="975.75" y="522.94" class="st12" width="25.98" height="22.59"/>
		<rect x="1004.72" y="522.94" class="st12" width="25.98" height="22.59"/>
		<rect x="1033.69" y="522.94" class="st12" width="25.98" height="22.59"/>
		<rect x="727.69" y="551.16" class="st13" width="25.98" height="22.59"/>
		<rect x="756.91" y="551.16" class="st13" width="25.98" height="22.59"/>
		<rect x="786.13" y="551.16" class="st13" width="25.98" height="22.59"/>
		<rect x="815.35" y="551.16" class="st13" width="25.98" height="22.59"/>
		<rect x="844.56" y="551.16" class="st13" width="25.98" height="22.59"/>
		<rect x="873.78" y="551.16" class="st13" width="25.98" height="22.59"/>
		<rect x="903" y="551.16" class="st13" width="25.98" height="22.59"/>
		<rect x="932.22" y="551.16" class="st13" width="25.98" height="22.59"/>
		<rect x="961.44" y="551.16" class="st13" width="25.98" height="22.59"/>
		<rect x="990.66" y="551.16" class="st13" width="25.98" height="22.59"/>
		<rect x="1019.88" y="551.16" class="st13" width="25.98" height="22.59"/>
		<rect x="1049.1" y="551.16" class="st13" width="25.98" height="22.59"/>
		<rect x="1078.32" y="551.16" class="st13" width="25.98" height="22.59"/>
		<rect x="710.05" y="580.17" class="st13" width="25.98" height="22.59"/>
		<rect x="739.14" y="580.17" class="st13" width="25.98" height="22.59"/>
		<rect x="768.23" y="580.17" class="st13" width="25.98" height="22.59"/>
		<rect x="797.31" y="580.17" class="st13" width="25.98" height="22.59"/>
		<rect x="826.4" y="580.17" class="st13" width="25.98" height="22.59"/>
		<rect x="855.49" y="580.17" class="st13" width="25.98" height="22.59"/>
		<rect x="884.58" y="580.17" class="st13" width="25.98" height="22.59"/>
		<rect x="913.67" y="580.17" class="st13" width="25.98" height="22.59"/>
		<rect x="942.76" y="580.17" class="st13" width="25.98" height="22.59"/>
		<rect x="971.85" y="580.17" class="st13" width="25.98" height="22.59"/>
		<rect x="1000.93" y="580.17" class="st13" width="25.98" height="22.59"/>
		<rect x="1030.02" y="580.17" class="st13" width="25.98" height="22.59"/>
		<rect x="1059.11" y="580.17" class="st13" width="25.98" height="22.59"/>
		<rect x="720.78" y="607.84" class="st13" width="25.98" height="22.59"/>
		<rect x="749.87" y="607.84" class="st13" width="25.98" height="22.59"/>
		<rect x="778.96" y="607.84" class="st13" width="25.98" height="22.59"/>
		<rect x="808.05" y="607.84" class="st13" width="25.98" height="22.59"/>
		<rect x="837.13" y="607.84" class="st13" width="25.98" height="22.59"/>
		<rect x="866.22" y="607.84" class="st13" width="25.98" height="22.59"/>
		<rect x="895.31" y="607.84" class="st13" width="25.98" height="22.59"/>
		<rect x="924.4" y="607.84" class="st13" width="25.98" height="22.59"/>
		<rect x="953.49" y="607.84" class="st13" width="25.98" height="22.59"/>
		<rect x="982.58" y="607.84" class="st13" width="25.98" height="22.59"/>
		<rect x="1011.67" y="607.84" class="st13" width="25.98" height="22.59"/>
		<rect x="1042.44" y="607.55" class="st13" width="60.45" height="22.61"/>
		<rect x="685.67" y="551.16" class="st12" width="38.78" height="22.23"/>
		<rect x="954.43" y="636.93" class="st12" width="42.83" height="27.11"/>
		<rect x="1000.93" y="636.37" class="st13" width="27.39" height="27.68"/>
		<rect x="1033.98" y="652.18" class="st12" width="36.15" height="11.86"/>
		<rect x="1033.69" y="636.37" class="st12" width="36.15" height="11.86"/>
		<rect x="1075.35" y="636.37" class="st13" width="27.39" height="27.68"/>
		<rect x="1088.48" y="567.74" class="st12" width="15.82" height="36.15"/>
		<rect x="1063.34" y="522.93" class="st13" width="41.8" height="22.61"/>
		<rect x="686.61" y="638.91" class="st13" width="32.9" height="22.59"/>
		<rect x="722.62" y="638.91" class="st13" width="25.98" height="22.59"/>
		<rect x="751.7" y="638.91" class="st13" width="25.98" height="22.59"/>
		<rect x="780.79" y="638.91" class="st13" width="25.98" height="22.59"/>
		<rect x="686.21" y="607.84" class="st13" width="31.58" height="22.59"/>
		<rect x="684.91" y="579.98" class="st13" width="22.03" height="22.59"/>
	</g>
	<g>
		
			<rect x="1529.89" y="340.12" transform="matrix(0.9967 -0.0809 0.0809 0.9967 -35.088 135.8002)" class="st14" width="256.81" height="321.57"/>
		
			<rect x="1484.69" y="348.89" transform="matrix(0.9903 0.1391 -0.1391 0.9903 86.7665 -220.0311)" class="st15" width="266.34" height="323.94"/>
		
			<rect x="1512.69" y="355.78" transform="matrix(0.9736 0.2283 -0.2283 0.9736 160.3238 -361.667)" class="st4" width="262.09" height="313.01"/>
		<polygon class="st16" points="1650.31,724.56 1650.98,722.67 1650.44,724.59 		"/>
		<path class="st16" d="M1706.37,561.52l-0.27-0.1l-44.8,157.14l-0.02,0.12l-1.76,6.14c0,0.02,0,0.02,0,0.05
			c-1.42,4.09-3.33,7.8-5.16,7.8l-2.1,0.56c-3.57,0-3.18-4.51-3.18-8.12l1.06-3l0.12,0.02l0.53-1.9l1.49-4.19l-0.27-0.07
			l44.97-157.75l0.39,0.12l3.3-5.14l1.98-3.07l-0.41-0.1l0.96-1.1l0.82-0.93l0.14-0.17l0.22,0.68l0.36,2.02l0.65,3.61
			L1706.37,561.52z"/>
		<polygon class="st16" points="1652.51,718.43 1650.98,722.67 1652.23,718.35 		"/>
		<polygon class="st16" points="1652.23,718.35 1652.51,718.43 1650.98,722.67 1650.44,724.59 1650.31,724.56 1650.26,724.54 
			1652.06,718.31 		"/>
		<path class="st17" d="M1652.34,732.11l-2.14,0.56c-3.65,0-3.25-4.54-3.25-8.19l5.08-14.26c0-3.65,0.58,3.95,4.24,3.95l-3.11,0.85
			c3.65,0,6.21-3.09,6.21,0.56l0.56-1.41C1659.94,717.82,1655.99,732.11,1652.34,732.11z"/>
		<polygon class="st18" points="1703.34,545.13 1704.52,551.68 1705.49,559.12 1700.88,557.26 1696.06,556.28 1699.7,550.7 		"/>
		
			<rect x="1671.84" y="553.78" transform="matrix(0.9609 0.2769 -0.2769 0.9609 242.8091 -439.3148)" class="st19" width="9.84" height="172.42"/>
		
			<rect x="1648.68" y="716.47" transform="matrix(0.9605 0.2783 -0.2783 0.9605 265.5716 -431.7273)" class="st20" width="10.07" height="6.49"/>
		<polygon class="st21" points="1704.18,548.1 1702.74,547.8 1701.3,547.51 1702.28,546.4 1703.26,545.3 1703.72,546.7 		"/>
	</g>
	<g>
		<path class="st22" d="M551.97,742.18l-57.01,8.28c-3.09,0.45-5.95-1.69-6.4-4.78L472,631.65c-0.45-3.09,1.69-5.95,4.78-6.4
			l57.01-8.28c3.09-0.45,5.95,1.69,6.4,4.78l16.56,114.03C557.2,738.86,555.06,741.73,551.97,742.18z"/>
		<path class="st23" d="M547.38,737.29l-49.43,7.18c-3.09,0.45-5.95-1.69-6.4-4.78l-15.03-103.52c-0.45-3.09,1.69-5.95,4.78-6.4
			l49.43-7.18c3.09-0.45,5.95,1.69,6.4,4.78l15.03,103.52C552.61,733.98,550.47,736.84,547.38,737.29z"/>
	</g>
	<g>
		<path class="st1" d="M987.48,188.76l-2.37,1.11l5.18-3.05l-13.52,4.31l-3.19-2.39l-0.01,0.09l0.02,0.04
			c-0.01-0.02-0.03-0.01-0.03-0.01l0.01-0.03l-20.13-32.19l-11.09,11.14l6.37,15.79l2.79,0.87c-3.18,0.43-6.3,1.3-9.14,2.61
			c-0.61,0.27-1.23,0.58-1.83,0.91l-0.1-1.18l-0.04-0.43l-4.5-0.56c0.14,0.15,0.23,0.27,0.28,0.36c0.17,0.16,0.06,0.11-0.21-0.03
			c-0.3-0.14-0.83-0.39-1.5-0.5l1.44,0.18c-0.08-0.1-0.15-0.17-0.24-0.29l-1.68,0.04l-12.06-2.89l-13.14-0.49l-7.63-1.11l0.03,0.83
			l0.41,12.63l24.48,6.82c-9,12.06-12.95,26.2-4.78,24.89c0.46-0.08,0.95-0.21,1.5-0.39c0.04-0.02,0.12-0.04,0.18-0.04
			c-0.01,0.09-0.03,0.16-0.01,0.23c-0.03,0.35-0.06,0.67-0.07,1.02c-0.15,5.12,1.07,10.48,3.8,15.53
			c3.43,6.35,8.31,11.19,13.65,14.55l-4.29-2.08l0.42,5.85l-2.11,10.91l7.4-8.33l4.38-3.4c4.35,1.82,8.79,2.7,12.88,2.7
			c6.38,0,8.84-6.12,9.74-14.31l-4.43,0.66l0.44-2.76l0.06-0.4l1.42,0.5c0.84,0,1.69-0.13,2.55-0.37c0.06,0,0.12-0.04,0.18-0.04
			c0,0.11-0.03,0.21-0.02,0.32c-0.02,0.32-0.05,0.64-0.09,0.97c-0.02,0.38-0.06,0.76-0.1,1.12l30.58-4.59l-0.18-1.27l2.07,1.65
			l-2.26-2.84l-1.48-9.95l3.74-3.76l-7.79-1.78l-8.58-1.58l0.03,0.15l-2.18-0.67c0.2-2.85,0.15-5.79-0.06-8.82l1.6-0.25l-0.16-0.19
			l4.26,0.27L987.48,188.76z M941.69,200.64l-6.02-2.8l5.4-4.15L941.69,200.64z"/>
		<path class="st24" d="M978.3,201.85c2.57,17.44,4.78,36.79-10.04,44.8c-14.82,8.01-28.87-25.7-48.12-19.37
			c-14.17,4.66-0.85-26.93,17.01-37.43C951.67,181.3,975.87,185.39,978.3,201.85z"/>
		<path class="st24" d="M966.44,221.09c-0.49,16.53,3.21,43.1-10.1,43.11c-11.12,0.01-25-6.67-32.31-20.21
			c-7.31-13.54-3.75-29.64,7.96-35.97S966.9,205.71,966.44,221.09z"/>
		<polygon class="st24" points="996.67,245.29 961.67,250.55 966.44,221.09 994.32,229.65 		"/>
		<polygon class="st24" points="927.15,203.8 898.93,195.93 898.5,182.46 945.9,189.39 		"/>
		<polygon class="st25" points="972.81,193.26 946.1,185.01 939.7,169.2 950.81,158.07 		"/>
		<polygon class="st25" points="966.99,249.04 948.08,242.56 918.63,227.66 939.11,225.16 947.18,212.65 953.98,225.89 		"/>
		<path class="st25" d="M937.76,187.8l1.29,14.28l-40.52-18.77l20.75,0.78l12.05,2.9c2.03,0.17,3,1.51,1.68-0.05l-1.68,0.05
			L937.76,187.8z"/>
		<polygon class="st25" points="931.7,273.24 933.8,262.33 933.39,256.46 938.68,259.03 951.52,255.26 939.09,264.9 		"/>
		<polygon class="st25" points="998.56,229.13 991.26,236.48 998.56,245.69 983.63,233.75 982.19,225.78 990.75,227.35 		"/>
		<polygon class="st24" points="985.67,216.27 967.94,215.15 959.61,202.1 984.84,190.18 		"/>
		<polygon class="st25" points="981.57,216.2 978.6,216.66 970.72,217.92 976.71,214.33 985.02,206.35 979.68,213.86 		"/>
		<polygon class="st25" points="987.64,188.24 973.67,196.5 970.02,198.08 970.48,194.12 970.94,190.17 974.13,192.54 		"/>
		<path class="st24" d="M964.82,245.96l1.42,0.5c-0.51-0.01-0.99-0.02-1.48-0.1L964.82,245.96z"/>
		<polygon class="st24" points="941.07,193.7 941.69,200.64 935.67,197.85 		"/>
		<path class="st24" d="M968.96,246.05c0,0.11-0.03,0.21-0.02,0.32c-0.02,0.32-0.05,0.64-0.09,0.97c-0.02,0.38-0.06,0.76-0.1,1.12
			l-4.43,0.66l0.44-2.76l0.06-0.4l1.42,0.5c0.84,0,1.69-0.13,2.55-0.37C968.84,246.09,968.9,246.05,968.96,246.05z"/>
		<path class="st24" d="M968.96,246.05c0,0.11-0.03,0.21-0.02,0.32c-0.02,0.32-0.05,0.64-0.09,0.97c-0.02,0.38-0.06,0.76-0.1,1.12
			l-4.43,0.66l0.44-2.76l0.06-0.4l1.42,0.5c0.84,0,1.69-0.13,2.55-0.37C968.84,246.09,968.9,246.05,968.96,246.05z"/>
		<path class="st24" d="M936.18,186.15c0.17,0.16,0.06,0.11-0.21-0.03L936.18,186.15z"/>
		<path class="st24" d="M942.38,187.05c-0.61,0.27-1.23,0.58-1.83,0.91l-0.1-1.18L942.38,187.05z"/>
		<path class="st25" d="M973.58,188.82l0.02,0.04c-0.01-0.02-0.03-0.01-0.03-0.01L973.58,188.82z"/>
		<path class="st25" d="M921.29,226.22l1.66-0.2c-0.03,0.35-0.06,0.67-0.07,1.02L921.29,226.22z"/>
		<path class="st25" d="M968.78,246.09l0.15,0.28c-0.02,0.32-0.05,0.64-0.09,0.97l-2.61-0.89
			C967.07,246.45,967.93,246.32,968.78,246.09z"/>
		<polygon class="st25" points="941.07,193.7 941.69,200.64 935.67,197.85 		"/>
		<path class="st25" d="M973.58,188.82l0.02,0.04c-0.01-0.02-0.03-0.01-0.03-0.01L973.58,188.82z"/>
	</g>
	<g>
		<path class="st1" d="M559.32,450.3l-2.61-0.15l6.01-0.22l-13.94-2.64l-1.67-3.62l-0.05,0.07v0.05c0-0.02-0.02-0.02-0.02-0.02
			l0.02-0.02l-2.41-37.89l-15.05,4.53l-1.9,16.92l2.04,2.09c-3.01-1.13-6.16-1.85-9.29-2.04c-0.67-0.05-1.35-0.07-2.04-0.07
			l0.47-1.08l0.17-0.39l-3.69-2.64c0.05,0.2,0.07,0.34,0.07,0.44c0.07,0.22,0,0.12-0.17-0.12c-0.2-0.27-0.54-0.74-1.08-1.16
			l1.18,0.84c-0.02-0.12-0.05-0.22-0.07-0.37l-1.5-0.76l-9.24-8.28l-11.33-6.68l-6.18-4.61l-0.37,0.74l-5.64,11.31l18.3,17.64
			c-13.65,6.33-23.84,16.9-16.04,19.63c0.44,0.15,0.94,0.27,1.5,0.37c0.05,0,0.12,0.02,0.17,0.05c-0.05,0.07-0.1,0.12-0.12,0.2
			c-0.2,0.3-0.37,0.57-0.54,0.86c-2.56,4.43-4.04,9.73-4.04,15.47c0,7.22,2,13.79,5.1,19.29l-2.78-3.87l-2.41,5.35l-7.04,8.6
			l10.47-3.82l5.47-0.91c2.96,3.67,6.45,6.55,10.05,8.5c5.62,3.03,10.69-1.18,15.37-7.96l-4.21-1.53l1.7-2.22l0.25-0.32l1.01,1.11
			c0.74,0.39,1.55,0.69,2.41,0.89c0.05,0.02,0.12,0.02,0.17,0.05c-0.05,0.1-0.12,0.17-0.17,0.27c-0.17,0.27-0.34,0.54-0.54,0.81
			c-0.2,0.32-0.42,0.64-0.62,0.94l29.09,10.49l0.44-1.21l1.03,2.44l-0.64-3.57l3.42-9.46l5.07-1.53l-6.01-5.27l-6.8-5.47l-0.05,0.15
			l-1.6-1.63c1.53-2.41,2.88-5.03,4.14-7.78l1.53,0.54l-0.05-0.25l3.62,2.27L559.32,450.3z M513.38,439l-3.97-5.32l6.72-1.08
			L513.38,439z"/>
		<path class="st24" d="M545.03,457.46c-6.02,16.57-13.28,34.64-30.12,34.64c-16.85,0-13.19-36.33-33.14-39.91
			c-14.69-2.64,12.05-24.1,32.76-24.85C531.36,426.72,550.71,441.82,545.03,457.46z"/>
		<path class="st24" d="M525.45,468.75c-8.28,14.31-17.65,39.45-29.37,33.14c-9.79-5.27-18.83-17.75-18.83-33.14
			c0-15.39,10.79-27.86,24.1-27.86C514.66,440.89,533.16,455.44,525.45,468.75z"/>
		<polygon class="st24" points="540.54,504.41 507.24,492.41 525.45,468.75 545.91,489.53 		"/>
		<polygon class="st24" points="499.09,434.86 478,414.53 484.02,402.48 522.43,431.1 		"/>
		<polygon class="st25" points="544.27,447.29 524.69,427.33 526.58,410.39 541.64,405.87 		"/>
		<polygon class="st25" points="512.64,493.61 499.09,478.92 480.26,451.81 499.46,459.34 512.51,452.17 512.2,467.05 		"/>
		<path class="st25" d="M516.03,425.83l-5.65,13.18l-26.74-35.77l17.89,10.54l9.23,8.28c1.71,1.11,1.93,2.75,1.51,0.75l-1.51-0.75
			L516.03,425.83z"/>
		<polygon class="st25" points="470.09,498.13 477.13,489.52 479.56,484.17 482.98,488.94 496.07,491.72 480.56,494.3 		"/>
		<polygon class="st25" points="549.89,491.09 539.97,494.09 542.01,505.66 534.56,488.06 537.07,480.36 543.86,485.81 		"/>
		<polygon class="st24" points="544.65,473.65 529.59,464.24 528.46,448.8 556.32,450.3 		"/>
		<polygon class="st25" points="541.08,471.64 538.25,470.64 530.72,468 537.69,467.68 548.79,464.61 540.53,468.68 		"/>
		<polygon class="st25" points="559.71,449.93 543.5,450.55 539.53,450.21 541.81,446.94 544.1,443.68 545.78,447.29 		"/>
		<path class="st24" d="M512.2,489.86l1.01,1.11c-0.44-0.25-0.86-0.49-1.26-0.79L512.2,489.86z"/>
		<polygon class="st24" points="516.14,432.59 513.38,439 509.42,433.68 		"/>
		<path class="st24" d="M515.8,491.91c-0.05,0.1-0.12,0.17-0.17,0.27c-0.17,0.27-0.34,0.54-0.54,0.81c-0.2,0.32-0.42,0.64-0.62,0.94
			l-4.21-1.53l1.7-2.22l0.25-0.32l1.01,1.11c0.74,0.39,1.55,0.69,2.41,0.89C515.67,491.88,515.75,491.88,515.8,491.91z"/>
		<path class="st24" d="M515.8,491.91c-0.05,0.1-0.12,0.17-0.17,0.27c-0.17,0.27-0.34,0.54-0.54,0.81c-0.2,0.32-0.42,0.64-0.62,0.94
			l-4.21-1.53l1.7-2.22l0.25-0.32l1.01,1.11c0.74,0.39,1.55,0.69,2.41,0.89C515.67,491.88,515.75,491.88,515.8,491.91z"/>
		<path class="st24" d="M515.43,423.63c0.07,0.22,0,0.12-0.17-0.12L515.43,423.63z"/>
		<path class="st24" d="M520.45,427.37c-0.67-0.05-1.35-0.07-2.04-0.07l0.47-1.08L520.45,427.37z"/>
		<path class="st25" d="M547.06,443.75v0.05c0-0.02-0.02-0.02-0.02-0.02L547.06,443.75z"/>
		<path class="st25" d="M483.28,451.81l1.55,0.62c-0.2,0.3-0.37,0.57-0.54,0.86L483.28,451.81z"/>
		<path class="st25" d="M515.63,491.86v0.32c-0.17,0.27-0.34,0.54-0.54,0.81l-1.87-2.02C513.95,491.37,514.76,491.66,515.63,491.86z
			"/>
		<polygon class="st25" points="516.14,432.59 513.38,439 509.42,433.68 		"/>
		<path class="st25" d="M547.06,443.75v0.05c0-0.02-0.02-0.02-0.02-0.02L547.06,443.75z"/>
	</g>
	<polygon class="st25" points="1391.87,755.83 1402.99,755.82 1408.66,754.3 1407.14,759.98 1413.29,771.87 1401.47,761.5 	"/>
	<polygon class="st25" points="1447.9,813.08 1439.29,807.31 1431.64,816.23 1440.53,799.3 1448.08,796.37 1448.16,805.07 	"/>
	<path class="st24" d="M1424.96,783.16l-0.22,1.48c-0.09-0.5-0.17-0.98-0.19-1.47L1424.96,783.16z"/>
	<path class="st24" d="M1425.65,787.24c-0.11,0.02-0.21,0.01-0.32,0.04c-0.32,0.04-0.64,0.08-0.97,0.1
		c-0.37,0.05-0.76,0.08-1.11,0.12l-1.49-4.23l2.79-0.09l0.4-0.01l-0.22,1.48c0.16,0.82,0.45,1.64,0.84,2.43
		C1425.6,787.12,1425.64,787.18,1425.65,787.24z"/>
	<path class="st24" d="M1425.65,787.24c-0.11,0.02-0.21,0.01-0.32,0.04c-0.32,0.04-0.64,0.08-0.97,0.1
		c-0.37,0.05-0.76,0.08-1.11,0.12l-1.49-4.23l2.79-0.09l0.4-0.01l-0.22,1.48c0.16,0.82,0.45,1.64,0.84,2.43
		C1425.6,787.12,1425.64,787.18,1425.65,787.24z"/>
	<path class="st25" d="M1436.05,736.67l0.51,1.59c-0.35,0.03-0.67,0.07-1.01,0.13L1436.05,736.67z"/>
	<path class="st25" d="M1425.58,787.07l-0.25,0.2c-0.32,0.04-0.64,0.08-0.97,0.1l0.38-2.73
		C1424.9,785.46,1425.19,786.28,1425.58,787.07z"/>
	<g>
		<path class="st1" d="M1485.42,794.52l-1.54-2.11l3.98,4.51l-6.8-12.45l1.74-3.59l-0.09,0.01l-0.04,0.03c0.02-0.02,0-0.03,0-0.03
			l0.03,0l27.77-25.89l-13.05-8.77l-14.29,9.26l-0.32,2.91c-1.03-3.04-2.48-5.93-4.31-8.48c-0.38-0.55-0.8-1.09-1.24-1.63l1.13-0.33
			l0.41-0.12l-0.3-4.53c-0.12,0.16-0.22,0.28-0.3,0.34c-0.12,0.2-0.1,0.08-0.01-0.21c0.08-0.32,0.23-0.89,0.21-1.57l0.1,1.45
			c0.08-0.1,0.14-0.18,0.24-0.29l-0.36-1.65l0.54-12.39l-2.02-12.99l-0.36-7.7l-0.81,0.18l-12.32,2.81l-2.04,25.34
			c-13.55-6.54-28.19-7.73-25.35,0.05c0.17,0.44,0.38,0.9,0.67,1.4c0.03,0.04,0.06,0.11,0.07,0.16c-0.09,0.01-0.16,0-0.23,0.03
			c-0.35,0.03-0.67,0.07-1.01,0.13c-5.05,0.83-10.09,3.04-14.52,6.68c-5.58,4.58-9.4,10.29-11.68,16.17l1.23-4.6l-5.66,1.52
			l-11.11,0l9.59,5.68l4.17,3.65c-0.96,4.61-0.98,9.14-0.2,13.16c1.22,6.26,7.69,7.52,15.9,6.84l-1.49-4.23l2.79-0.09l0.4-0.01
			l-0.22,1.48c0.16,0.82,0.45,1.64,0.84,2.43c0.01,0.05,0.06,0.11,0.07,0.16c-0.11,0.02-0.21,0.01-0.32,0.04
			c-0.32,0.04-0.64,0.08-0.97,0.1c-0.37,0.05-0.76,0.08-1.11,0.12l10.33,29.15l1.21-0.42l-1.23,2.35l2.36-2.76l9.49-3.35l4.4,2.96
			l0.27-7.99l-0.08-8.72l-0.15,0.06l0.24-2.27c2.84-0.35,5.71-0.96,8.64-1.73l0.55,1.52l0.16-0.19l0.54,4.24L1485.42,794.52z
			 M1465.04,751.82l1.6-6.44l5.1,4.51L1465.04,751.82z"/>
		<path class="st24" d="M1470.83,788c-16.63,5.84-35.21,11.69-45.89-1.33s19.74-33.24,9.86-50.93c-7.27-13.03,26.28-5.96,39.99,9.58
			C1485.93,757.94,1486.52,782.48,1470.83,788z"/>
		<path class="st24" d="M1449.68,780.02c-16.32,2.67-41.7,11.36-44.25-1.71c-2.13-10.91,1.79-25.81,13.69-35.57
			c11.9-9.76,28.39-9.32,36.83,0.97S1464.87,777.54,1449.68,780.02z"/>
		<polygon class="st24" points="1431.67,814.3 1419.85,780.94 1449.68,780.02 1446.58,809.01 		"/>
		<polygon class="st24" points="1459.17,738.15 1461.53,708.95 1474.67,705.97 1476.89,753.81 		"/>
		<polygon class="st25" points="1478.21,780.97 1481.23,753.17 1495.53,743.89 1508.57,752.67 		"/>
		<polygon class="st25" points="1422.34,785.87 1425.1,766.08 1434.13,734.33 1440.48,753.96 1454.3,759.5 1442.6,768.69 		"/>
		<path class="st25" d="M1476.91,745.52l-13.77,3.99l10.71-43.35l3.19,20.52l-0.56,12.39c0.22,2.03-0.91,3.23,0.37,1.64l-0.37-1.64
			L1476.91,745.52z"/>
		<polygon class="st24" points="1458.07,797.97 1455.8,780.36 1467.02,769.69 1483.52,792.2 		"/>
		<polygon class="st25" points="1457.36,793.94 1456.34,791.11 1453.6,783.62 1458.27,788.81 1467.68,795.45 1459.3,791.64 		"/>
		<polygon class="st25" points="1485.96,794.58 1475.2,782.44 1472.95,779.15 1476.92,778.85 1480.89,778.55 1479.17,782.13 		"/>
		<polygon class="st24" points="1471.74,749.9 1465.04,751.82 1466.64,745.38 		"/>
		<path class="st24" d="M1478.22,743.66c-0.12,0.2-0.1,0.08-0.01-0.21L1478.22,743.66z"/>
		<path class="st24" d="M1478.52,749.92c-0.38-0.55-0.8-1.09-1.24-1.63l1.13-0.33L1478.52,749.92z"/>
		<path class="st25" d="M1482.71,780.88l-0.04,0.03c0.02-0.02,0-0.03,0-0.03L1482.71,780.88z"/>
		<polygon class="st25" points="1471.74,749.9 1465.04,751.82 1466.64,745.38 		"/>
		<path class="st25" d="M1482.71,780.88l-0.04,0.03c0.02-0.02,0-0.03,0-0.03L1482.71,780.88z"/>
	</g>
	<g>
		<path class="st1" d="M1327.97,813.19l-29.56,6.8c-17,3.94-34.09-6.77-38.03-23.77l-20-86.83c-3.92-17,6.77-34.12,23.77-38.03
			l29.56-6.8c17-3.92,34.12,6.77,38.03,23.77l2.44,10.54l17.56,76.29C1355.68,792.15,1344.96,809.27,1327.97,813.19z"/>
		<path class="st26" d="M1339.75,808.31l-66.27,15.28c-6.9,1.59-13.85-2.75-15.44-9.65l-28.49-123.54
			c-1.59-6.9,2.75-13.85,9.65-15.44l66.27-15.28c6.9-1.59,13.85,2.75,15.44,9.65l28.49,123.54
			C1351,799.77,1346.65,806.72,1339.75,808.31z"/>
		<line class="st22" x1="1274.03" y1="668.28" x2="1281.94" y2="707.82"/>
		<line class="st27" x1="1237.88" y1="719.11" x2="1327.69" y2="698.22"/>
		<line class="st28" x1="1280.61" y1="668.92" x2="1288.51" y2="708.45"/>
		<line class="st28" x1="1244.46" y1="719.75" x2="1334.26" y2="698.85"/>
	</g>
	<g>
		<path class="st1" d="M376.38,448.26l-14.17-1.37l-13.29-1.3l-1.41-0.13v-0.67l1.41,0.13l0.23-11.31l0.38-18.3l-1.5,2.58l0.12-5.22
			l-8.8,15.32l-8.71,15.12l2.73,0.27l-0.35,0.64l-0.09,0.17l-0.03,0.07l-0.82-0.3l-1.56-0.17l0.12-0.37l1.44,0.54l0.29,0.03
			l-1.85-0.67l0.12-0.2l-112.56-10.97c-10.62-1.04-19.95,7.93-20.86,20.04l-2.67,35.37c0.06,0.1,0.06,0.23,0.06,0.37
			c0,0.23-0.03,0.43-0.12,0.64l-4.08,54.24c0.12,0.23,0.18,0.5,0.18,0.77c0,0.37-0.12,0.7-0.32,1L189,561.52
			c0.06,0.17,0.06,0.37,0.06,0.57c-0.03,0.2-0.06,0.37-0.15,0.54l-5.49,73.01c0.06,0.2,0.09,0.37,0.09,0.57
			c0,0.27-0.06,0.54-0.18,0.77l-2.67,35.33c-0.91,12.11,6.95,22.75,17.58,23.79l14.17,1.37c1.44,0.6,2.99,0.97,4.61,1.14
			l139.52,13.65c10.62,1.04,19.95-7.93,20.86-20.04l16.55-220.16C394.87,459.97,387,449.3,376.38,448.26z M278.88,690.11
			l-14.67-5.29l-1.91-0.67l2.73-9.94l0.26,0.1l1.91,0.67l-0.56,1.97l-0.23-0.1l-0.23,0.8l14.55,5.35l0.82-2.91l0.06,0.03
			L278.88,690.11z M288.97,598.13l-0.7,2.51l-0.56,1.94l-0.12-0.03l0.53-1.97l-1.79-0.64l-0.09-0.03l1.2-4.48l0.15,0.07l1.94,0.67
			L288.97,598.13z M303.96,608.4h-0.03l0.7-2.48L303.96,608.4z"/>
		<path class="st29" d="M347.9,703.82l-139.52-13.64c-10.62-1.04-18.48-11.69-17.57-23.8l16.55-220.14
			c0.91-12.1,10.25-21.08,20.87-20.04l139.52,13.64c10.62,1.04,18.48,11.69,17.57,23.8l-16.55,220.14
			C367.85,695.88,358.51,704.85,347.9,703.82z"/>
		<path class="st30" d="M329.1,701.31l-139.52-13.64c-10.62-1.04-18.48-11.69-17.57-23.8l16.55-220.14
			c0.91-12.1,10.25-21.08,20.87-20.04l139.52,13.64c10.62,1.04,18.48,11.69,17.57,23.8l-16.55,220.14
			C349.06,693.37,339.72,702.34,329.1,701.31z"/>
		<polygon class="st31" points="280.31,589.68 279.04,594.13 278.93,594.1 280.16,589.61 		"/>
		<polygon class="st31" points="295.97,597.48 295.3,599.95 295.27,599.95 		"/>
		<line class="st32" x1="224.49" y1="495.73" x2="328.3" y2="505.39"/>
		<line class="st32" x1="223.59" y1="527.44" x2="327.4" y2="537.11"/>
		<polygon class="st33" points="272.07,674.58 255.85,668.61 321.99,434.97 338.21,440.95 		"/>
		<polygon class="st31" points="293.94,597.33 277.58,591.47 278.81,587 295.17,592.86 		"/>
		<path class="st34" d="M269.99,649.54L269.99,649.54c1.15,0.42,2.38-0.31,2.75-1.62l11.59-41.68c0.37-1.31-0.27-2.71-1.42-3.13h0
			c-1.15-0.42-2.38,0.31-2.75,1.62l-11.59,41.68C268.2,647.72,268.84,649.12,269.99,649.54z"/>
		<polygon class="st31" points="272.96,671.72 256.38,665.78 253.64,675.73 270.22,681.67 		"/>
		<polygon class="st31" points="339.5,404.23 339.13,422.56 338.76,440.88 330.32,437.88 321.87,434.88 330.69,419.56 		"/>
		<ellipse class="st35" cx="175.02" cy="571.95" rx="3.36" ry="2.4"/>
		<ellipse class="st35" cx="178.56" cy="535.12" rx="3.36" ry="2.4"/>
		<ellipse class="st35" cx="182.59" cy="479.5" rx="3.36" ry="2.4"/>
		
			<ellipse transform="matrix(0.1143 -0.9934 0.9934 0.1143 -392.9044 665.9905)" class="st35" cx="177.04" cy="553.34" rx="2.39" ry="3.37"/>
		<ellipse class="st35" cx="172.5" cy="609.63" rx="3.36" ry="2.4"/>
		<ellipse class="st35" cx="174.01" cy="590.17" rx="3.36" ry="2.4"/>
		<ellipse class="st35" cx="183.77" cy="459.84" rx="3.36" ry="2.4"/>
		<ellipse class="st35" cx="181.08" cy="498.1" rx="3.36" ry="2.4"/>
		<ellipse class="st35" cx="179.57" cy="515.75" rx="3.36" ry="2.4"/>
		<ellipse class="st35" cx="171.49" cy="627.76" rx="3.36" ry="2.4"/>
		<ellipse class="st35" cx="185.03" cy="442.77" rx="3.36" ry="2.4"/>
		<ellipse class="st35" cx="169.98" cy="645.69" rx="3.36" ry="2.4"/>
		<ellipse class="st35" cx="168.55" cy="665.07" rx="3.36" ry="2.4"/>
	</g>
</g>
</svg>
