<?xml version="1.0" encoding="utf-8"?>
<!-- Generator: Adobe Illustrator 28.0.0, SVG Export Plug-In . SVG Version: 6.00 Build 0)  -->
<svg version="1.1" xmlns="http://www.w3.org/2000/svg" xmlns:xlink="http://www.w3.org/1999/xlink" x="0px" y="0px"
	 viewBox="0 0 841.89 595.28" style="enable-background:new 0 0 841.89 595.28;" xml:space="preserve">
<style type="text/css">
	.st0{display:none;opacity:0.44;}
	.st1{fill:#EFD1BF;}
	.st2{fill:#047184;}
	.st3{fill:#12ACBD;}
	.st4{fill:#020203;}
	.st5{fill:#F8B133;}
	.st6{fill:#F4983A;}
	.st7{fill:#FFFFFF;}
	.st8{fill:none;}
	.st9{font-family:'Georgia-Bold';}
	.st10{font-size:16.9984px;}
</style>
<g id="Lager_1" class="st0">
</g>
<g id="Lager_2">
	<g>
		<path class="st1" d="M487.11,126.79c-7.1,3.67-12.27,6.54-13.89,3.4c-1.62-3.14,2.82-8.66,9.93-12.33
			c7.1-3.67,14.18-4.09,15.8-0.95C500.57,120.05,494.22,123.12,487.11,126.79z"/>
		<path class="st1" d="M348.26,265.95c-3.41,7.23-5.76,12.65-8.96,11.15s-3.03-8.59,0.38-15.83c3.41-7.23,8.77-11.87,11.97-10.36
			S351.67,258.72,348.26,265.95z"/>
		<path class="st1" d="M400.99,165.12l-2.98,2.12c-1.71,1.22-4.11,0.81-5.33-0.9l-3.21-4.51c-1.22-1.71-0.81-4.11,0.9-5.33
			l2.98-2.12c1.71-1.22,4.11-0.81,5.33,0.9l3.21,4.51C403.11,161.5,402.7,163.9,400.99,165.12z"/>
		<path class="st2" d="M446.14,324.16L446.14,324.16c-3.79-0.65-6.31-4.39-5.63-8.36l7.83-58.94c0.68-3.97,4.91,3.04,8.69,3.69h0
			c3.79,0.65,6.31,4.39,5.63,8.36l-8.43,49.24C453.55,322.12,449.93,324.81,446.14,324.16z"/>
		<path class="st2" d="M462.06,262.2l-5.96,1.93c-2.65,0.86-5.5-0.59-6.35-3.24l-11.72-36.16c-0.86-2.65,0.59-5.5,3.24-6.35
			l5.96-1.93c2.65-0.86,5.5,0.59,6.35,3.24l11.72,36.16C466.17,258.5,464.71,261.34,462.06,262.2z"/>
		<path class="st3" d="M449.62,230.64l-22.88,13.21c-4.47,2.58-10.18,1.05-12.76-3.42l-32.42-56.15
			c-2.58-4.47-1.05-10.18,3.42-12.76l22.88-13.21c4.47-2.58,10.18-1.05,12.76,3.42l32.42,56.15
			C455.62,222.35,454.09,228.06,449.62,230.64z"/>
		<path class="st3" d="M348.56,262.23l-3.74-1.93c-2.66-1.37-3.7-4.64-2.33-7.3l40.48-78.45c1.37-2.66,4.64-3.7,7.3-2.33l3.74,1.93
			c2.66,1.37,3.7,4.64,2.33,7.3l-40.48,78.45C354.48,262.56,351.22,263.6,348.56,262.23z"/>
		<path class="st3" d="M398.82,174.22l-2.1-3.64c-1.5-2.59-0.61-5.9,1.98-7.4l76.45-44.14c2.59-1.5,5.9-0.61,7.4,1.98l2.1,3.64
			c1.5,2.59,0.61,5.9-1.98,7.4l-76.45,44.14C403.63,177.7,400.32,176.81,398.82,174.22z"/>
		<path class="st3" d="M476.72,266.87L476.72,266.87c-2.64,4.51-7.74,6.44-11.39,4.3l-48.78-28.72c-14.01-27.71,3.06-2.93,5.69-7.44
			v0c2.64-4.51,7.74-6.44,11.39-4.3l41.25,24.12C478.53,256.97,479.36,262.36,476.72,266.87z"/>
		<path class="st3" d="M500.94,305.26l-3.91,2.46c-2.78,1.75-6.45,0.91-8.2-1.87l-25.44-40.46c-1.75-2.78-0.91-6.45,1.87-8.2
			l3.91-2.46c2.78-1.75,6.45-0.91,8.2,1.87l25.44,40.46C504.55,299.84,503.72,303.51,500.94,305.26z"/>
		<path class="st4" d="M465.7,325.09l-23.7-1.36c-1.44-0.08-2.54-1.31-2.45-2.75l0.12-2.02c0.08-1.44,1.31-2.54,2.75-2.45l23.7,1.36
			c1.44,0.08,2.54,1.31,2.45,2.75l-0.12,2.02C468.37,324.07,467.13,325.17,465.7,325.09z"/>
		<path class="st5" d="M445.98,478.93c-42.75,0-77.4-34.65-77.4-77.4s34.65-77.4,77.4-77.4"/>
		<path class="st6" d="M445.98,324.13c42.75,0,77.4,34.65,77.4,77.4s-34.65,77.4-77.4,77.4"/>
		<path class="st7" d="M409.85,188.3l-23.3-11.74c-2.33-1.17-2.51-4.42-0.33-5.85l21.82-14.31c2.18-1.43,5.08,0.04,5.23,2.64
			l1.49,26.05C414.89,187.68,412.17,189.47,409.85,188.3z"/>
		<polygon class="st4" points="403.89,172.11 392.64,166.74 402.92,159.68 		"/>
		<ellipse transform="matrix(0.866 -0.5 0.5 0.866 -34.4472 227.6769)" class="st4" cx="407.63" cy="178.12" rx="2.69" ry="9.74"/>
		
			<ellipse transform="matrix(0.9045 -0.4264 0.4264 0.9045 -23.6035 176.28)" class="st1" cx="381.85" cy="140.85" rx="21.99" ry="23.29"/>
		<line class="st8" x1="447.65" y1="319.12" x2="448.21" y2="547.98"/>
		<rect x="378.07" y="394.12" class="st8" width="60.69" height="40.65"/>
		<text transform="matrix(1 0 0 1 378.0733 406.9693)" class="st7 st9 st10">WORK</text>
		<rect x="462.15" y="393.42" class="st8" width="71.27" height="28.95"/>
		<text transform="matrix(1 0 0 1 462.1504 406.2711)" class="st7 st9 st10">LIFE</text>
		<path class="st4" d="M515.95,295.72l-19.51,13.52c-1.18,0.82-2.81,0.53-3.63-0.66l-1.15-1.66c-0.82-1.18-0.53-2.81,0.66-3.63
			l19.51-13.52c1.18-0.82,2.81-0.53,3.63,0.66l1.15,1.66C517.43,293.27,517.14,294.9,515.95,295.72z"/>
	</g>
</g>
</svg>
