<?xml version="1.0" encoding="UTF-8"?>
<svg id="Lager_4" data-name="Lager 4" xmlns="http://www.w3.org/2000/svg" viewBox="0 0 841.89 595.28">
  <defs>
    <style>
      .cls-1 {
        fill: #fff;
      }

      .cls-2 {
        fill: #d1d9d9;
      }

      .cls-3 {
        fill: #6eb5cd;
      }

      .cls-4 {
        fill: #eaeaea;
      }

      .cls-5 {
        fill: #fdfdfd;
      }

      .cls-6 {
        fill: #adadad;
      }

      .cls-7 {
        fill: #a5d1a1;
      }

      .cls-8 {
        fill: #bfdcaf;
      }

      .cls-9 {
        fill: #238d37;
        stroke: #c3deb6;
        stroke-miterlimit: 10;
        stroke-width: 3px;
      }
    </style>
  </defs>
  <g>
    <circle class="cls-8" cx="509" cy="238.16" r="6.65"/>
    <path class="cls-3" d="m566.84,397.13c0-4.81-39.83-8.71-88.97-8.71-39.99,0-126.34-3.37-156.38-2.12-.1-5.42-13.82-9.8-30.73-9.8s-35.31,5.96-30.72,9.86c1.42,1.21,2.76,2.41,4.04,3.6-12.02,3.02-23.3,7.91-23.3,12.22,0,6.84,38.96,5.96,53.65,5.96,5.49,0,18.08,1.02,31.71,1.94,6.58,1.9,15.17,4.14,26.08,6.77,30.69,7.41,45.64,11.33,93.32,10.55,51.53-.84,93.32-4.72,93.32-10.55,0-2.8-9.67-5.35-25.42-7.23,29.58-4.18,53.4-9.71,53.4-12.49Zm-247.6-4.53c-.88-.33-1.69-.65-2.44-.96.89.17,1.79.34,2.7.51-.08.15-.17.3-.26.45Zm-8.17,8.61c-.79.57-1.64,1.09-2.52,1.59-.18-.7.72-1.22,2.52-1.59Z"/>
    <path class="cls-3" d="m311.07,401.21c-.79.57-1.64,1.09-2.52,1.59-.18-.7.72-1.22,2.52-1.59Z"/>
    <path class="cls-3" d="m319.5,392.15c-.08.15-.17.3-.26.45-.88-.33-1.69-.65-2.44-.96.89.17,1.79.34,2.7.51Z"/>
    <path class="cls-3" d="m311.07,401.21c-.79.57-1.64,1.09-2.52,1.59-.18-.7.72-1.22,2.52-1.59Z"/>
    <path class="cls-3" d="m319.5,392.15c-.08.15-.17.3-.26.45-.88-.33-1.69-.65-2.44-.96.89.17,1.79.34,2.7.51Z"/>
    <path class="cls-3" d="m311.07,401.21c-.79.57-1.64,1.09-2.52,1.59-.18-.7.72-1.22,2.52-1.59Z"/>
    <path class="cls-3" d="m319.5,392.15c-.08.15-.17.3-.26.45-.88-.33-1.69-.65-2.44-.96.89.17,1.79.34,2.7.51Z"/>
    <rect class="cls-6" x="313.24" y="360.45" width="222.88" height="38.98" rx="6.19" ry="6.19"/>
    <path class="cls-2" d="m319.2,100.42h211.41c4.56,0,8.25,3.7,8.25,8.25v256.36h-227.92V108.68c0-4.56,3.7-8.25,8.25-8.25Z"/>
    <circle class="cls-1" cx="426.05" cy="254.05" r="95.39"/>
    <rect class="cls-4" x="310.94" y="100.42" width="227.92" height="47.69" rx="5.96" ry="5.96"/>
    <rect class="cls-6" x="407.25" y="104.55" width="65.12" height="32.1" rx="6.65" ry="6.65"/>
    <circle class="cls-6" cx="425.13" cy="253.14" r="74.29"/>
    <path class="cls-1" d="m516.85,253.14c0,13.42.12,24.31-13.3,24.31s-24.31-10.88-24.31-24.31,10.88-24.31,24.31-24.31,13.3,10.88,13.3,24.31Z"/>
    <path class="cls-6" d="m506.99,108.22c6.71,0,12.15,5.85,12.15,13.07s-5.44,13.07-12.15,13.07"/>
    <path class="cls-6" d="m502.41,134.36c-6.71,0-12.15-5.85-12.15-13.07s5.44-13.07,12.15-13.07"/>
    <rect class="cls-5" x="318.74" y="104.55" width="78.42" height="38.52" rx="5.27" ry="5.27"/>
    <rect class="cls-6" x="408.62" y="139.4" width="12.38" height="6.19"/>
    <rect class="cls-6" x="425.82" y="139.52" width="12.38" height="6.19"/>
    <rect class="cls-6" x="443.02" y="139.52" width="12.38" height="6.19"/>
    <rect class="cls-6" x="459.53" y="139.52" width="12.38" height="6.19"/>
    <rect class="cls-6" x="349.92" y="107.76" width="44.03" height="5.96" rx="2.98" ry="2.98"/>
    <circle class="cls-6" cx="343.5" cy="110.51" r="2.75"/>
  </g>
  <rect class="cls-9" x="403.81" y="261.2" width="65.77" height="36.03"/>
  <rect class="cls-9" x="384.66" y="208.68" width="65.77" height="36.03" transform="translate(173.29 634.23) rotate(-87.56)"/>
  <rect class="cls-9" x="370.93" y="225.92" width="65.77" height="36.03" transform="translate(151.2 -154.51) rotate(26.49)"/>
  <g>
    <rect class="cls-9" x="362.98" y="252.45" width="62.45" height="33.02"/>
    <ellipse class="cls-7" cx="394.2" cy="268.96" rx="8.48" ry="12.24"/>
    <circle class="cls-8" cx="368.1" cy="257.91" r="6.65"/>
    <circle class="cls-8" cx="419.8" cy="257.91" r="6.65"/>
    <circle class="cls-8" cx="419.8" cy="279.73" r="6.65"/>
    <circle class="cls-8" cx="368.86" cy="278.82" r="6.65"/>
  </g>
  <g>
    <rect class="cls-9" x="405.55" y="210.15" width="62.45" height="33.02" transform="translate(-53.64 267.08) rotate(-32.14)"/>
    <ellipse class="cls-7" cx="436.77" cy="226.66" rx="8.48" ry="12.24" transform="translate(-53.64 267.08) rotate(-32.14)"/>
    <circle class="cls-8" cx="408.79" cy="231.19" r="6.65"/>
    <circle class="cls-8" cx="452.57" cy="203.68" r="6.65"/>
    <circle class="cls-8" cx="464.18" cy="222.16" r="6.65"/>
    <circle class="cls-8" cx="420.56" cy="248.49" r="6.65"/>
  </g>
  <g>
    <rect class="cls-9" x="406.98" y="275.28" width="62.45" height="33.02" transform="translate(-88.08 277.83) rotate(-32.14)"/>
    <ellipse class="cls-7" cx="438.2" cy="291.79" rx="8.48" ry="12.24" transform="translate(-88.08 277.83) rotate(-32.14)"/>
    <circle class="cls-8" cx="410.22" cy="296.32" r="6.65"/>
    <circle class="cls-8" cx="454" cy="268.82" r="6.65"/>
    <circle class="cls-8" cx="465.61" cy="287.29" r="6.65"/>
    <circle class="cls-8" cx="421.99" cy="313.62" r="6.65"/>
  </g>
  <g>
    <rect class="cls-9" x="411.41" y="233.16" width="62.45" height="33.02" transform="translate(157.83 -171.22) rotate(26.49)"/>
    <ellipse class="cls-7" cx="442.63" cy="249.67" rx="12.24" ry="8.48" transform="translate(21.74 534.47) rotate(-63.51)"/>
    <circle class="cls-8" cx="424.2" cy="228.13" r="6.65"/>
    <circle class="cls-8" cx="470.47" cy="251.2" r="6.65"/>
    <circle class="cls-8" cx="460.74" cy="270.73" r="6.65"/>
    <circle class="cls-8" cx="415.55" cy="247.19" r="6.65"/>
  </g>
</svg>