<?xml version="1.0" encoding="UTF-8"?>
<svg xmlns="http://www.w3.org/2000/svg" viewBox="0 0 595.28 841.89">
  <defs>
    <style>
      .cls-1 {
        fill: #fff;
      }

      .cls-2 {
        fill: #1d1d1b;
        stroke: #1d1d1b;
        stroke-miterlimit: 10;
      }
    </style>
  </defs>
  <g id="Lager_1" data-name="Lager 1">
    <path class="cls-2" d="m435.17,228.42c-.13,0-.26,0-.4.02,0-.01-.02,0-.02,0-.01-.01-.03-.01-.05,0-.13-.02-.27-.02-.4-.02h.87Z"/>
    <path class="cls-2" d="m196.34,403.89c-.92.61-2.11,1.02-3.96,1.37-.41.08-.84.12-1.28.14l-.1,2.91-4.05-.14.11-3v-.1c-.49-.1-.93-.21-1.33-.33-2.75-.84-4.98-3.57-5.22-3.88l3.18-2.52c.42.53,1.92,2.13,3.23,2.53.09.03.18.06.29.08l.14-3.98c-.54-.1-1.1-.25-1.58-.46-.56-.17-2.24-.78-3.49-2.16-1.92-2.1-2.23-4.62-.85-6.9,1.91-3.16,4.32-4.1,6.43-4.28l.1-2.92,4.06.15-.11,2.98v.1s.04,0,.04,0c4.17.81,6.77,4.55,6.87,4.71l-3.34,2.28s-1.53-2.16-3.73-2.86l-.2,5.6c.86-.02,1.66,0,2.64.24,3.8.92,4.61,3.52,4.75,4.98.22,2.33-.68,4.22-2.6,5.46Z"/>
    <path class="cls-2" d="m423.22,318.82c0-4.82,3.85-8.73,8.6-8.73s8.59,3.91,8.59,8.73-3.85,8.73-8.59,8.73-8.6-3.91-8.6-8.73Z"/>
    <path class="cls-2" d="m418.89,333.72c.41.43.67,1,.67,1.64v21.89c0,1.28-1.03,2.32-2.29,2.32s-2.3-1.05-2.3-2.32v-21.89c0-1.28,1.03-2.32,2.3-2.32.63,0,1.2.26,1.62.68Z"/>
    <path class="cls-2" d="m448.91,335.37v21.89c0,1.28-1.03,2.32-2.3,2.32s-2.29-1.05-2.29-2.32v-21.89c0-1.28,1.03-2.32,2.29-2.32.63,0,1.21.26,1.63.68.41.43.67,1,.67,1.64Z"/>
    <circle class="cls-2" cx="192.61" cy="318.69" r="8.6"/>
    <path class="cls-2" d="m212.38,355.13c-1.13.55-2.51.07-3.06-1.06l-9.43-19.39c-.55-1.13-.07-2.51,1.06-3.06.32-.16.67-.23,1-.23.86,0,1.68.47,2.07,1.29l9.42,19.38c.55,1.14.07,2.52-1.06,3.07Z"/>
    <path class="cls-2" d="m500.42,380.65c-2.17-6.32-8.45-8.85-18.08-9.69-.04-.38-.11-.76-.23-1.15l-40.55-136.63c-.61-2.05-2.14-3.6-4.01-4.31-.22-.1-.46-.17-.7-.23-.05-.01-.09-.02-.13-.03-.04-.02-.08-.03-.13-.03,0,0-.01,0-.02,0-.01,0-.03-.02-.05,0-.09-.03-.19-.05-.29-.06-.23-.05-.47-.07-.72-.08-.11-.01-.23-.01-.34-.01-.13,0-.26,0-.4.02,0-.01-.02,0-.02,0-.01-.01-.03-.01-.05,0-.13-.02-.27-.02-.4-.02h-106.15c-1.74-5.14-5.77-9.24-10.88-11.06v-8.39c0-3.32-2.69-6-6-6-1.66,0-3.16.67-4.25,1.75-1.08,1.09-1.75,2.59-1.75,4.25v8.39c-5.11,1.82-9.14,5.92-10.88,11.06h-98.92c-1.57,0-3.01.64-4.05,1.68-.2.2-.38.4-.53.63-.01,0-.01.01-.02.02-.73.69-1.31,1.57-1.67,2.58l-47.56,135.49c-.21.59-.33,1.18-.37,1.78-13.1.13-21.53,2.28-23.65,10.52-4.67,18.15,32.23,33.94,72,33.94s78.09-16.21,72-33.94c-2.17-6.32-8.45-8.86-18.08-9.7-.04-.38-.11-.76-.23-1.14l-38.7-130.39h89.78c1.74,5.14,5.77,9.23,10.88,11.05v242.78h-48.49c-2.27,0-4.34.93-5.83,2.42-1.5,1.5-2.43,3.56-2.43,5.83,0,.41.03.82.09,1.21h-12.62c-3.87,0-7.38,1.58-9.93,4.14-2.56,2.55-4.14,6.06-4.14,9.93,0,7.74,6.34,14.07,14.07,14.07h150.55c3.87,0,7.39-1.58,9.94-4.13,2.55-2.55,4.13-6.07,4.13-9.94,0-7.73-6.33-14.07-14.07-14.07h-12.62c.06-.39.09-.8.09-1.21,0-4.54-3.71-8.25-8.25-8.25h-48.49v-242.78c5.1-1.82,9.14-5.91,10.88-11.05h97.4l-45.11,128.46c-.2.59-.32,1.19-.36,1.79-13.09.13-21.54,2.27-23.66,10.51-4.67,18.16,32.24,33.94,72,33.94s78.09-16.21,72-33.94Zm-304.08,23.24c-.92.61-2.11,1.02-3.96,1.37-.41.08-.84.12-1.28.14l-.1,2.91-4.05-.14.11-3v-.1c-.49-.1-.93-.21-1.33-.33-2.75-.84-4.98-3.57-5.22-3.88l3.18-2.52c.42.53,1.92,2.13,3.23,2.53.09.03.18.06.29.08l.14-3.98c-.54-.1-1.1-.25-1.58-.46-.56-.17-2.24-.78-3.49-2.16-1.92-2.1-2.23-4.62-.85-6.9,1.91-3.16,4.32-4.1,6.43-4.28l.1-2.92,4.06.15-.11,2.98v.1s.04,0,.04,0c4.17.81,6.77,4.55,6.87,4.71l-3.34,2.28s-1.53-2.16-3.73-2.86l-.2,5.6c.86-.02,1.66,0,2.64.24,3.8.92,4.61,3.52,4.75,4.98.22,2.33-.68,4.22-2.6,5.46Zm-5.81-31.74v-10h2.82v9.98c-.93.01-1.87.02-2.82.02Zm39.15-1.05c-8.56.15-18.59.69-29.82.93v-9.88h4.17c1.91,0,3.19-1.98,2.4-3.72l-6.07-13.48-5.35-11.86c-.93-2.07-3.87-2.07-4.8,0l-5.35,11.86-6.07,13.48c-.79,1.74.49,3.72,2.4,3.72h2.82v9.95c-10.71-.16-20.47-.77-29.03-1.16l40.46-115.22,34.24,115.38Zm208.74,31.34c-.93.6-2.11,1.01-3.96,1.37-.41.08-.84.12-1.28.13l-.1,2.92-4.05-.15.1-2.99v-.11c-.48-.09-.92-.2-1.32-.32-2.76-.84-4.98-3.57-5.22-3.89l3.18-2.51c.42.53,1.91,2.13,3.23,2.53.09.02.18.05.29.08l.14-3.98c-.54-.11-1.1-.26-1.58-.46-.56-.17-2.25-.79-3.49-2.16-1.92-2.1-2.23-4.62-.85-6.9,1.91-3.16,4.32-4.1,6.43-4.29l.1-2.92,4.05.15-.1,2.99v.09s.02.01.04.01c4.17.8,6.76,4.55,6.87,4.71l-3.34,2.28s-1.53-2.16-3.73-2.86l-.2,5.6c.86-.02,1.66,0,2.64.24,3.8.92,4.6,3.51,4.75,4.98.22,2.33-.68,4.22-2.6,5.46Zm-9.26-30.75v-8.02h5.15v7.98c-1.69.02-3.41.04-5.15.04Zm11.67-.17v-11.18c0-.14-.02-.29-.06-.43.15-.44.22-.89.22-1.36v-22.9c0-2.81-2.58-5.11-5.74-5.11h-6.87c-3.16,0-5.74,2.3-5.74,5.11v22.9c0,.37.05.74.14,1.09-.09.22-.14.46-.14.7v11.3c-10.63-.17-20.34-.77-28.85-1.16l40.45-115.23,34.24,115.39c-8.01.14-17.3.63-27.65.88Z"/>
    <path class="cls-2" d="m185.6,334.91l-10.04,19.07c-.59,1.11-1.98,1.55-3.1.96-1.11-.59-1.55-1.98-.96-3.1l10.05-19.07c.59-1.12,1.98-1.55,3.09-.96.78.41,1.22,1.21,1.22,2.03,0,.36-.08.73-.26,1.07Z"/>
    <path class="cls-2" d="m438.42,402.44c-.93.6-2.11,1.01-3.96,1.37-.41.08-.84.12-1.28.13l-.1,2.92-4.05-.15.1-2.99v-.11c-.48-.09-.92-.2-1.32-.32-2.76-.84-4.98-3.57-5.22-3.89l3.18-2.51c.42.53,1.91,2.13,3.23,2.53.09.02.18.05.29.08l.14-3.98c-.54-.11-1.1-.26-1.58-.46-.56-.17-2.25-.79-3.49-2.16-1.92-2.1-2.23-4.62-.85-6.9,1.91-3.16,4.32-4.1,6.43-4.29l.1-2.92,4.05.15-.1,2.99v.09s.02.01.04.01c4.17.8,6.76,4.55,6.87,4.71l-3.34,2.28s-1.53-2.16-3.73-2.86l-.2,5.6c.86-.02,1.66,0,2.64.24,3.8.92,4.6,3.51,4.75,4.98.22,2.33-.68,4.22-2.6,5.46Z"/>
  </g>
  <g id="Lager_3" data-name="Lager 3">
    <path class="cls-1" d="m441.02,396.98c-.15-1.47-.95-4.06-4.75-4.98-.98-.24-1.78-.26-2.64-.24l.2-5.6c2.2.7,3.71,2.84,3.73,2.86l3.34-2.28c-.11-.16-2.7-3.91-6.87-4.71-.02,0-.03,0-.05-.01v-.09s.11-2.99.11-2.99l-4.05-.15-.1,2.92c-2.11.19-4.52,1.13-6.43,4.29-1.38,2.28-1.07,4.8.85,6.9,1.24,1.37,2.93,1.99,3.49,2.16.48.2,1.04.35,1.58.46l-.14,3.98c-.11-.03-.2-.06-.29-.08-1.32-.4-2.81-2-3.23-2.53l-3.18,2.51c.24.32,2.46,3.05,5.22,3.89.4.12.84.23,1.33.32v.11s-.11,2.99-.11,2.99l4.05.15.1-2.92c.44-.01.87-.05,1.28-.13,1.85-.36,3.03-.77,3.96-1.37,1.92-1.24,2.82-3.13,2.6-5.46Zm-11.44-5.6c-.08-.02-.15-.05-.2-.07l-.15-.07-.15-.04c-.3-.09-1.19-.44-1.73-1.03-.9-.99-.68-1.57-.37-2.08.85-1.41,1.75-2.05,2.81-2.27l-.21,5.56Zm6.64,7.66h0c-.44.29-1.27.55-2.51.79-.11.02-.23.04-.37.05l.14-3.92v-.15c.81-.02,1.26-.02,1.84.13,1.57.38,1.63,1.03,1.67,1.42.09.94-.2,1.31-.76,1.68Z"/>
    <path class="cls-1" d="m198.94,398.43c-.14-1.46-.95-4.06-4.75-4.98-.98-.24-1.78-.26-2.64-.24l.2-5.6c2.2.7,3.72,2.84,3.73,2.86l3.34-2.28c-.1-.16-2.7-3.9-6.87-4.71h-.05v-.1s.12-2.98.12-2.98l-4.06-.15-.1,2.92c-2.11.18-4.52,1.12-6.43,4.28-1.38,2.28-1.07,4.8.85,6.9,1.25,1.38,2.93,1.99,3.49,2.16.48.21,1.04.36,1.58.46l-.14,3.98c-.11-.02-.2-.05-.29-.08-1.31-.4-2.81-2-3.23-2.53l-3.18,2.52c.24.31,2.47,3.04,5.22,3.88.4.12.84.23,1.33.33v.1l-.11,3,4.05.14.1-2.91c.44-.02.87-.06,1.28-.14,1.85-.35,3.04-.76,3.96-1.37,1.92-1.24,2.82-3.13,2.6-5.46Zm-11.43-5.59c-.09-.03-.15-.06-.21-.08l-.15-.06-.15-.05c-.3-.08-1.19-.43-1.73-1.03-.9-.99-.68-1.57-.37-2.07.86-1.42,1.75-2.05,2.81-2.27l-.2,5.56Zm6.63,7.65h0c-.45.29-1.28.55-2.52.79-.11.02-.23.04-.37.05l.15-3.91v-.15c.8-.02,1.25-.02,1.84.12,1.56.38,1.63,1.04,1.66,1.42.09.94-.2,1.32-.76,1.68Z"/>
  </g>
</svg>