<?xml version="1.0" encoding="utf-8"?>
<!-- Generator: Adobe Illustrator 28.0.0, SVG Export Plug-In . SVG Version: 6.00 Build 0)  -->
<svg version="1.1" id="Lager_1" xmlns="http://www.w3.org/2000/svg" xmlns:xlink="http://www.w3.org/1999/xlink" x="0px" y="0px"
	 viewBox="0 0 1110 853" style="enable-background:new 0 0 1110 853;" xml:space="preserve">
<style type="text/css">
	.st0{clip-path:url(#SVGID_00000092451210945237506960000001430245825244639396_);}
	.st1{clip-path:url(#SVGID_00000080175531658512274630000007776313810020256667_);}
	.st2{clip-path:url(#SVGID_00000049207885456099847550000016819879640799178171_);fill:#F39639;}
	.st3{clip-path:url(#SVGID_00000049207885456099847550000016819879640799178171_);}
	.st4{clip-path:url(#SVGID_00000080915792595883160150000006576472775613312407_);}
	.st5{clip-path:url(#SVGID_00000131357484107282997610000007033985423815796152_);}
	.st6{clip-path:url(#SVGID_00000109013921563980871750000005607466151215109291_);fill:#F39639;}
	.st7{clip-path:url(#SVGID_00000109013921563980871750000005607466151215109291_);}
	.st8{clip-path:url(#SVGID_00000067236683034891163270000006167643723951990181_);}
	.st9{clip-path:url(#SVGID_00000177454554019747989160000011169220865144913593_);}
	.st10{clip-path:url(#SVGID_00000092457730516127821370000001653264771395060655_);fill:#F39639;}
	.st11{clip-path:url(#SVGID_00000092457730516127821370000001653264771395060655_);}
	.st12{clip-path:url(#SVGID_00000036222178670298499500000008678746234662663840_);}
	.st13{clip-path:url(#SVGID_00000063599672643079824220000000234347831204112264_);}
	.st14{clip-path:url(#SVGID_00000169553142065730321980000007683947982513985199_);fill:#F39639;}
	.st15{clip-path:url(#SVGID_00000169553142065730321980000007683947982513985199_);}
	.st16{clip-path:url(#SVGID_00000105416903858362397620000001051378684383552913_);}
	.st17{clip-path:url(#SVGID_00000062171906287594006970000012356333499875055241_);}
	.st18{clip-path:url(#SVGID_00000095299617386642544840000004926842366460016814_);fill:#F39639;}
	.st19{clip-path:url(#SVGID_00000095299617386642544840000004926842366460016814_);}
	.st20{clip-path:url(#SVGID_00000124861828878327771150000006817795118325380536_);}
	.st21{clip-path:url(#SVGID_00000068663611016309033440000012001213158171416966_);}
	.st22{clip-path:url(#SVGID_00000134963585655986078830000000302067556096456106_);fill:#F39639;}
	.st23{clip-path:url(#SVGID_00000134963585655986078830000000302067556096456106_);}
</style>
<g>
	<g>
		<defs>
			
				<rect id="SVGID_1_" x="374.14" y="603.17" transform="matrix(0.9248 -0.3806 0.3806 0.9248 -215.4892 205.6829)" width="76.49" height="89.18"/>
		</defs>
		<clipPath id="SVGID_00000005265157595585039320000002910926245786713742_">
			<use xlink:href="#SVGID_1_"  style="overflow:visible;"/>
		</clipPath>
		
			<g id="Coin_00000179641375236735015050000008632846467932586157_" style="clip-path:url(#SVGID_00000005265157595585039320000002910926245786713742_);">
			<g>
				<defs>
					
						<rect id="SVGID_00000103264042937253211260000008871125100312481455_" x="374.14" y="603.17" transform="matrix(0.9248 -0.3806 0.3806 0.9248 -215.4892 205.6829)" width="76.49" height="89.18"/>
				</defs>
				<clipPath id="SVGID_00000088851181986981806680000007390236096710830514_">
					<use xlink:href="#SVGID_00000103264042937253211260000008871125100312481455_"  style="overflow:visible;"/>
				</clipPath>
				<g style="clip-path:url(#SVGID_00000088851181986981806680000007390236096710830514_);">
					<defs>
						
							<rect id="SVGID_00000124122900881381196620000008211446277505902008_" x="374.14" y="603.17" transform="matrix(0.9248 -0.3806 0.3806 0.9248 -215.4892 205.6828)" width="76.49" height="89.18"/>
					</defs>
					<clipPath id="SVGID_00000134251346968182786230000015334715497992295828_">
						<use xlink:href="#SVGID_00000124122900881381196620000008211446277505902008_"  style="overflow:visible;"/>
					</clipPath>
					<path style="clip-path:url(#SVGID_00000134251346968182786230000015334715497992295828_);fill:#F39639;" d="M385.45,658.85
						c-8.67-21.06-2.69-43.83,13.22-53.3c-1.47,0.37-2.92,0.84-4.34,1.42c-18.93,7.79-26.68,32.57-17.31,55.34
						s32.32,34.92,51.25,27.13c1.43-0.59,2.79-1.27,4.09-2.04C414.38,691.88,394.11,679.91,385.45,658.85"/>
					<path style="clip-path:url(#SVGID_00000134251346968182786230000015334715497992295828_);fill:#F39639;" d="M402.95,606.73
						c-16.01,6.59-21.92,29.13-13.18,50.35c8.73,21.22,28.79,33.07,44.8,26.48c16.01-6.59,21.92-29.13,13.18-50.35
						C439.02,612,418.96,600.14,402.95,606.73 M432.74,676.43c-13.2,5.43-29.74-4.34-36.94-21.84c-7.2-17.49-2.33-36.08,10.87-41.51
						c13.2-5.43,29.74,4.34,36.94,21.84C450.81,652.41,445.94,670.99,432.74,676.43"/>
					<path style="clip-path:url(#SVGID_00000134251346968182786230000015334715497992295828_);fill:#F39639;" d="M440.46,636.21
						c6.25,15.19,2.02,31.33-9.44,36.04s-25.82-3.77-32.07-18.96s-2.02-31.33,9.44-36.04C419.85,612.53,434.21,621.02,440.46,636.21
						"/>
					<path style="clip-path:url(#SVGID_00000134251346968182786230000015334715497992295828_);" d="M419.08,625.69
						c-1.54-0.69-3.4-1.11-5.02-0.42c-1.48,0.63-2.29,2.02-2.62,3.54c-0.8,3.71,0.79,7.34,3.41,9.91c1.41,1.38,3.14,2.28,5,2.89
						c1.71,0.56,3.48,0.94,5.09,1.78c3.09,1.62,5.16,4.95,6.12,8.22c0.55,1.89,0.75,4.05-0.05,5.9c-0.47,1.08-1.39,1.65-2.48,2.02
						c-1.28,0.44-2.44,0.18-3.64-0.37c-0.93-0.43-1.53,1.03-0.61,1.46c1.79,0.83,3.59,0.98,5.42,0.14c0.63-0.29,1.44-0.68,1.91-1.18
						c0.58-0.61,0.94-1.54,1.17-2.33c0.92-3.15-0.08-6.68-1.6-9.48c-1.67-3.07-4.09-5.43-7.42-6.61c-1.79-0.64-3.68-1-5.39-1.85
						c-1.84-0.92-3.47-2.52-4.47-4.33c-1.01-1.81-1.4-4.26-0.81-6.27c0.76-2.59,3.32-2.49,5.38-1.56
						C419.41,627.57,420.01,626.11,419.08,625.69"/>
					<path style="clip-path:url(#SVGID_00000134251346968182786230000015334715497992295828_);" d="M411.45,624.02
						c0.48,0.89,0.96,1.77,1.44,2.66c0.1,0.19,0.22,0.34,0.43,0.43c0.18,0.07,0.43,0.08,0.61,0c0.35-0.17,0.64-0.64,0.43-1.03
						c-0.48-0.89-0.96-1.77-1.44-2.66c-0.1-0.19-0.22-0.34-0.43-0.43c-0.18-0.07-0.43-0.08-0.61,0
						C411.52,623.15,411.23,623.63,411.45,624.02"/>
					<path style="clip-path:url(#SVGID_00000134251346968182786230000015334715497992295828_);" d="M430.58,659.33
						c0.48,0.89,0.96,1.77,1.44,2.66c0.1,0.19,0.22,0.34,0.43,0.43c0.18,0.07,0.43,0.08,0.61,0c0.36-0.17,0.64-0.64,0.43-1.03
						c-0.48-0.89-0.96-1.77-1.44-2.66c-0.1-0.19-0.22-0.34-0.43-0.43c-0.18-0.07-0.43-0.08-0.61,0
						C430.65,658.46,430.37,658.94,430.58,659.33"/>
				</g>
			</g>
		</g>
	</g>
	<g>
		<defs>
			
				<rect id="SVGID_00000119820298385794353370000002804312274269945276_" x="280.18" y="714.38" transform="matrix(0.8911 -0.4538 0.4538 0.8911 -307.6831 224.2918)" width="66.58" height="77.64"/>
		</defs>
		<clipPath id="SVGID_00000179621419799832781850000000196809216291190431_">
			<use xlink:href="#SVGID_00000119820298385794353370000002804312274269945276_"  style="overflow:visible;"/>
		</clipPath>
		
			<g id="Coin_00000177475355813643012730000006704050797557575087_" style="clip-path:url(#SVGID_00000179621419799832781850000000196809216291190431_);">
			<g>
				<defs>
					
						<rect id="SVGID_00000159455006281382178860000015286884443575409086_" x="280.18" y="714.38" transform="matrix(0.8911 -0.4538 0.4538 0.8911 -307.6831 224.2918)" width="66.58" height="77.64"/>
				</defs>
				<clipPath id="SVGID_00000170264171161564755170000000045985797018184352_">
					<use xlink:href="#SVGID_00000159455006281382178860000015286884443575409086_"  style="overflow:visible;"/>
				</clipPath>
				<g style="clip-path:url(#SVGID_00000170264171161564755170000000045985797018184352_);">
					<defs>
						
							<rect id="SVGID_00000067198676184612331340000016484259099793134226_" x="280.18" y="714.38" transform="matrix(0.8911 -0.4538 0.4538 0.8911 -307.6831 224.2918)" width="66.58" height="77.64"/>
					</defs>
					<clipPath id="SVGID_00000027570107287915690920000005705327034107372476_">
						<use xlink:href="#SVGID_00000067198676184612331340000016484259099793134226_"  style="overflow:visible;"/>
					</clipPath>
					<path style="clip-path:url(#SVGID_00000027570107287915690920000005705327034107372476_);fill:#F39639;" d="M290.87,764.71
						c-9-17.66-5.41-37.84,7.73-47.17c-1.25,0.42-2.47,0.93-3.67,1.54c-15.88,8.09-20.87,30.13-11.14,49.23s30.49,28.03,46.37,19.95
						c1.2-0.61,2.33-1.3,3.4-2.06C318.3,791.33,299.87,782.37,290.87,764.71"/>
					<path style="clip-path:url(#SVGID_00000027570107287915690920000005705327034107372476_);fill:#F39639;" d="M302.4,718.25
						c-13.43,6.84-16.97,26.81-7.91,44.61c9.06,17.8,27.3,26.68,40.73,19.84c13.43-6.84,16.97-26.81,7.91-44.61
						C334.07,720.29,315.83,711.41,302.4,718.25 M333.14,776.64c-11.07,5.64-26.11-1.68-33.58-16.36
						c-7.47-14.67-4.55-31.14,6.52-36.78c11.07-5.64,26.11,1.68,33.58,16.36C347.14,754.53,344.22,771,333.14,776.64"/>
					<path style="clip-path:url(#SVGID_00000027570107287915690920000005705327034107372476_);fill:#F39639;" d="M337.02,741.2
						c6.49,12.74,3.95,27.04-5.66,31.94c-9.62,4.9-22.67-1.46-29.16-14.2c-6.49-12.74-3.95-27.04,5.66-31.94
						C317.48,722.1,330.53,728.46,337.02,741.2"/>
					<path style="clip-path:url(#SVGID_00000027570107287915690920000005705327034107372476_);" d="M317.73,733.57
						c-1.39-0.49-3.03-0.73-4.39-0.01c-1.24,0.65-1.85,1.91-2.03,3.25c-0.44,3.28,1.2,6.31,3.66,8.36c1.32,1.1,2.88,1.76,4.54,2.16
						c1.52,0.37,3.09,0.57,4.54,1.19c2.79,1.19,4.83,3.93,5.88,6.7c0.61,1.61,0.94,3.46,0.37,5.12c-0.33,0.97-1.09,1.53-2.01,1.93
						c-1.08,0.47-2.11,0.33-3.19-0.07c-0.83-0.31-1.26,1-0.43,1.31c1.61,0.59,3.19,0.6,4.71-0.26c0.53-0.3,1.2-0.69,1.58-1.16
						c0.46-0.57,0.71-1.4,0.85-2.11c0.58-2.79-0.53-5.79-2.05-8.11c-1.67-2.55-3.93-4.42-6.9-5.21c-1.6-0.43-3.26-0.61-4.8-1.23
						c-1.66-0.67-3.19-1.95-4.18-3.44c-1-1.5-1.51-3.6-1.14-5.39c0.47-2.3,2.71-2.4,4.56-1.73
						C318.14,735.18,318.57,733.87,317.73,733.57"/>
					<path style="clip-path:url(#SVGID_00000027570107287915690920000005705327034107372476_);" d="M310.99,732.66
						c0.48,0.74,0.96,1.47,1.44,2.21c0.1,0.16,0.22,0.28,0.4,0.34c0.16,0.05,0.38,0.04,0.53-0.04c0.3-0.17,0.51-0.6,0.3-0.93
						c-0.48-0.74-0.96-1.47-1.44-2.21c-0.1-0.16-0.21-0.28-0.4-0.34c-0.16-0.05-0.38-0.04-0.53,0.04
						C310.99,731.9,310.78,732.34,310.99,732.66"/>
					<path style="clip-path:url(#SVGID_00000027570107287915690920000005705327034107372476_);" d="M330.07,761.95
						c0.48,0.74,0.96,1.47,1.44,2.21c0.1,0.16,0.22,0.28,0.4,0.34c0.16,0.05,0.38,0.04,0.53-0.04c0.3-0.17,0.51-0.6,0.3-0.93
						c-0.48-0.74-0.96-1.47-1.44-2.21c-0.1-0.16-0.21-0.28-0.4-0.34c-0.16-0.05-0.38-0.04-0.53,0.04
						C330.07,761.2,329.86,761.63,330.07,761.95"/>
				</g>
			</g>
		</g>
	</g>
	<g>
		<defs>
			
				<rect id="SVGID_00000056390173588278693160000004988928694918034592_" x="220.85" y="99.24" transform="matrix(0.3516 -0.9362 0.9362 0.3516 40.4518 366.2733)" width="127.56" height="109.39"/>
		</defs>
		<clipPath id="SVGID_00000024685080247866048070000015393303646148048816_">
			<use xlink:href="#SVGID_00000056390173588278693160000004988928694918034592_"  style="overflow:visible;"/>
		</clipPath>
		
			<g id="Coin_00000178178958162835794650000009401179913903254439_" style="clip-path:url(#SVGID_00000024685080247866048070000015393303646148048816_);">
			<g>
				<defs>
					
						<rect id="SVGID_00000056424864213404307630000013574408240920457618_" x="220.85" y="99.24" transform="matrix(0.3516 -0.9362 0.9362 0.3516 40.4518 366.2733)" width="127.56" height="109.39"/>
				</defs>
				<clipPath id="SVGID_00000047740838591604499300000006551728306643737278_">
					<use xlink:href="#SVGID_00000056424864213404307630000013574408240920457618_"  style="overflow:visible;"/>
				</clipPath>
				<g style="clip-path:url(#SVGID_00000047740838591604499300000006551728306643737278_);">
					<defs>
						
							<rect id="SVGID_00000146482329238606815380000012235171038041658753_" x="220.85" y="99.24" transform="matrix(0.3516 -0.9362 0.9362 0.3516 40.4517 366.273)" width="127.56" height="109.39"/>
					</defs>
					<clipPath id="SVGID_00000065794038608134925120000009432875173109560737_">
						<use xlink:href="#SVGID_00000146482329238606815380000012235171038041658753_"  style="overflow:visible;"/>
					</clipPath>
					<path style="clip-path:url(#SVGID_00000065794038608134925120000009432875173109560737_);fill:#F39639;" d="M245.63,139.29
						c11.45-30.49,39.89-48.5,65.78-42.91c-1.89-1.05-3.87-1.96-5.93-2.74c-27.41-10.29-59.67,8.09-72.05,41.07
						s-0.2,68.05,27.21,78.35c2.07,0.78,4.16,1.39,6.27,1.84C243.73,202.06,234.18,169.78,245.63,139.29"/>
					<path style="clip-path:url(#SVGID_00000065794038608134925120000009432875173109560737_);fill:#F39639;" d="M314.74,101.78
						c-23.19-8.71-51.33,9.14-62.87,39.86c-11.54,30.72-2.09,62.68,21.09,71.39c23.18,8.71,51.33-9.14,62.87-39.86
						C347.37,142.45,337.92,110.49,314.74,101.78 M278.01,203.78c-19.12-7.18-26.9-33.53-17.39-58.86
						c9.51-25.33,32.72-40.04,51.83-32.86c19.12,7.18,26.9,33.53,17.39,58.86C320.33,196.24,297.12,210.96,278.01,203.78"/>
					<path style="clip-path:url(#SVGID_00000065794038608134925120000009432875173109560737_);fill:#F39639;" d="M325.28,169.2
						c-8.26,21.99-28.41,34.77-45.01,28.53c-16.6-6.23-23.36-29.11-15.1-51.11s28.41-34.77,45.01-28.53
						C326.78,124.33,333.54,147.21,325.28,169.2"/>
					<path style="clip-path:url(#SVGID_00000065794038608134925120000009432875173109560737_);" d="M313.16,137.36
						c-0.94-2.23-2.47-4.48-4.85-5.33c-2.17-0.78-4.37-0.12-6.19,1.15c-4.46,3.1-6.32,8.45-6.08,13.7c0.13,2.82,1.06,5.45,2.42,7.9
						c1.24,2.25,2.73,4.38,3.59,6.82c1.66,4.7,0.58,10.21-1.61,14.56c-1.27,2.52-3.16,4.97-5.81,6.12c-1.55,0.67-3.06,0.37-4.57-0.3
						c-1.77-0.79-2.73-2.19-3.45-3.94c-0.55-1.35-2.61-0.41-2.06,0.94c1.07,2.62,2.8,4.53,5.53,5.43c0.94,0.31,2.16,0.69,3.16,0.62
						c1.2-0.08,2.49-0.7,3.5-1.3c4.03-2.4,6.43-7.07,7.56-11.48c1.24-4.85,1.01-9.67-1.33-14.15c-1.26-2.41-2.88-4.63-3.83-7.19
						c-1.03-2.76-1.17-6.02-0.46-8.88c0.71-2.88,2.69-5.82,5.27-7.36c3.32-1.97,5.91,0.63,7.16,3.61
						C311.66,139.64,313.72,138.7,313.16,137.36"/>
					<path style="clip-path:url(#SVGID_00000065794038608134925120000009432875173109560737_);" d="M306.79,128.17
						c-0.36,1.4-0.72,2.79-1.08,4.19c-0.08,0.3-0.1,0.57,0.03,0.87c0.12,0.25,0.36,0.5,0.63,0.59c0.53,0.17,1.3-0.05,1.46-0.66
						c0.36-1.4,0.72-2.79,1.08-4.19c0.08-0.3,0.1-0.57-0.03-0.87c-0.11-0.25-0.36-0.5-0.63-0.59
						C307.71,127.33,306.94,127.55,306.79,128.17"/>
					<path style="clip-path:url(#SVGID_00000065794038608134925120000009432875173109560737_);" d="M292.41,183.77
						c-0.36,1.4-0.72,2.79-1.08,4.19c-0.08,0.3-0.1,0.57,0.03,0.87c0.12,0.25,0.36,0.5,0.63,0.59c0.53,0.17,1.3-0.05,1.46-0.66
						c0.36-1.4,0.72-2.79,1.08-4.19c0.08-0.3,0.1-0.57-0.03-0.87c-0.11-0.25-0.36-0.5-0.63-0.59
						C293.33,182.94,292.57,183.16,292.41,183.77"/>
				</g>
			</g>
		</g>
	</g>
	<g>
		<defs>
			
				<rect id="SVGID_00000102534859467827203670000002793910958872320692_" x="363.66" y="169.28" transform="matrix(0.854 -0.5202 0.5202 0.854 -55.7924 243.6026)" width="85.06" height="103.89"/>
		</defs>
		<clipPath id="SVGID_00000055706949031086834280000014140004478597419182_">
			<use xlink:href="#SVGID_00000102534859467827203670000002793910958872320692_"  style="overflow:visible;"/>
		</clipPath>
		
			<g id="Coin_00000021828495651319687410000010583569066151735978_" style="clip-path:url(#SVGID_00000055706949031086834280000014140004478597419182_);">
			<g>
				<defs>
					
						<rect id="SVGID_00000069373838776811764430000016151478996500376752_" x="363.66" y="169.28" transform="matrix(0.854 -0.5202 0.5202 0.854 -55.7924 243.6026)" width="85.06" height="103.89"/>
				</defs>
				<clipPath id="SVGID_00000014616622152467709200000002568113314226119608_">
					<use xlink:href="#SVGID_00000069373838776811764430000016151478996500376752_"  style="overflow:visible;"/>
				</clipPath>
				<g style="clip-path:url(#SVGID_00000014616622152467709200000002568113314226119608_);">
					<defs>
						
							<rect id="SVGID_00000062157545667571560530000005068878050534739858_" x="363.66" y="169.28" transform="matrix(0.854 -0.5202 0.5202 0.854 -55.7924 243.6027)" width="85.06" height="103.89"/>
					</defs>
					<clipPath id="SVGID_00000077319921954236920120000008569870101692820892_">
						<use xlink:href="#SVGID_00000062157545667571560530000005068878050534739858_"  style="overflow:visible;"/>
					</clipPath>
					<path style="clip-path:url(#SVGID_00000077319921954236920120000008569870101692820892_);fill:#F39639;" d="M433.86,204.37
						c-13.8-22.65-38.66-33.13-57.7-25.22c1.29-1.08,2.66-2.08,4.13-2.97c19.44-11.84,47.31-1.59,62.23,22.91
						s11.26,53.96-8.19,65.81c-1.47,0.89-2.98,1.66-4.53,2.3C445.56,253.92,447.66,227.02,433.86,204.37"/>
					<path style="clip-path:url(#SVGID_00000077319921954236920120000008569870101692820892_);fill:#F39639;" d="M374.48,183.88
						c16.45-10.02,41.05,0.36,54.95,23.19c13.9,22.82,11.84,49.45-4.61,59.46c-16.45,10.02-41.05-0.36-54.95-23.19
						C355.97,220.52,358.03,193.9,374.48,183.88 M419.43,259.88c13.56-8.26,15.26-30.21,3.8-49.03
						c-11.46-18.82-31.75-27.38-45.31-19.12c-13.56,8.26-15.26,30.21-3.8,49.03C385.58,259.58,405.87,268.14,419.43,259.88"/>
					<path style="clip-path:url(#SVGID_00000077319921954236920120000008569870101692820892_);fill:#F39639;" d="M377.35,238.79
						c9.95,16.34,27.57,23.77,39.34,16.6c11.77-7.17,13.25-26.23,3.3-42.57s-27.57-23.77-39.34-16.6S367.4,222.45,377.35,238.79"/>
					<path style="clip-path:url(#SVGID_00000077319921954236920120000008569870101692820892_);" d="M381.5,211.9
						c0.36-1.89,1.17-3.88,2.86-4.88c1.54-0.91,3.35-0.68,4.96,0.08c3.94,1.86,6.25,5.86,6.92,10.05c0.36,2.26,0.07,4.46-0.57,6.59
						c-0.59,1.95-1.39,3.84-1.65,5.89c-0.51,3.95,1.22,8.18,3.62,11.34c1.39,1.83,3.24,3.52,5.47,4.08c1.3,0.33,2.42-0.12,3.47-0.85
						c1.24-0.86,1.75-2.1,2.02-3.59c0.21-1.15,1.95-0.68,1.74,0.47c-0.4,2.22-1.42,3.97-3.38,5.05c-0.68,0.37-1.56,0.84-2.33,0.92
						c-0.94,0.1-2.03-0.22-2.91-0.56c-3.5-1.36-6.11-4.75-7.7-8.09c-1.74-3.68-2.35-7.53-1.29-11.4c0.58-2.08,1.46-4.06,1.78-6.22
						c0.35-2.33-0.08-4.94-1.09-7.11c-1.02-2.19-3.02-4.26-5.26-5.13c-2.88-1.12-4.45,1.29-4.93,3.83
						C383.03,213.5,381.28,213.04,381.5,211.9"/>
					<path style="clip-path:url(#SVGID_00000077319921954236920120000008569870101692820892_);" d="M384.91,203.75
						c0.51,1.06,1.01,2.12,1.52,3.18c0.11,0.23,0.17,0.44,0.12,0.69c-0.05,0.22-0.2,0.45-0.39,0.55c-0.38,0.21-1.01,0.14-1.23-0.33
						c-0.51-1.06-1.01-2.12-1.52-3.18c-0.11-0.23-0.17-0.44-0.12-0.69c0.05-0.22,0.2-0.45,0.39-0.55
						C384.06,203.21,384.69,203.28,384.91,203.75"/>
					<path style="clip-path:url(#SVGID_00000077319921954236920120000008569870101692820892_);" d="M405.06,245.94
						c0.51,1.06,1.01,2.12,1.52,3.18c0.11,0.23,0.17,0.44,0.12,0.69c-0.05,0.22-0.2,0.45-0.39,0.55c-0.38,0.21-1.01,0.14-1.23-0.33
						c-0.51-1.06-1.01-2.12-1.52-3.18c-0.11-0.23-0.17-0.44-0.12-0.69c0.05-0.22,0.2-0.45,0.39-0.55
						C404.22,245.4,404.84,245.47,405.06,245.94"/>
				</g>
			</g>
		</g>
	</g>
	<g>
		<defs>
			
				<rect id="SVGID_00000103976456058157207490000018351118658213410194_" x="268.06" y="290.87" transform="matrix(0.6708 -0.7416 0.7416 0.6708 -144.3696 339.7688)" width="84.96" height="83.28"/>
		</defs>
		<clipPath id="SVGID_00000051377363874036369280000003391806909925111966_">
			<use xlink:href="#SVGID_00000103976456058157207490000018351118658213410194_"  style="overflow:visible;"/>
		</clipPath>
		
			<g id="Coin_00000092443643902649944850000011004513505815296923_" style="clip-path:url(#SVGID_00000051377363874036369280000003391806909925111966_);">
			<g>
				<defs>
					
						<rect id="SVGID_00000060714718739240001910000011158305884167992450_" x="268.06" y="290.87" transform="matrix(0.6708 -0.7416 0.7416 0.6708 -144.3696 339.7688)" width="84.96" height="83.28"/>
				</defs>
				<clipPath id="SVGID_00000047057768920239380300000013052739889941790100_">
					<use xlink:href="#SVGID_00000060714718739240001910000011158305884167992450_"  style="overflow:visible;"/>
				</clipPath>
				<g style="clip-path:url(#SVGID_00000047057768920239380300000013052739889941790100_);">
					<defs>
						
							<rect id="SVGID_00000046334095438790905690000013042806221670227646_" x="268.06" y="290.87" transform="matrix(0.6708 -0.7416 0.7416 0.6708 -144.3696 339.769)" width="84.96" height="83.28"/>
					</defs>
					<clipPath id="SVGID_00000157296887716613189720000009828346294716403334_">
						<use xlink:href="#SVGID_00000046334095438790905690000013042806221670227646_"  style="overflow:visible;"/>
					</clipPath>
					<path style="clip-path:url(#SVGID_00000157296887716613189720000009828346294716403334_);fill:#F39639;" d="M334.06,353.78
						c14.55-16.09,15.1-39.72,2.03-55.01c1.35,0.94,2.65,1.96,3.89,3.09c16.53,14.95,17.18,41.18,1.44,58.58
						c-15.74,17.4-41.9,19.38-58.43,4.43c-1.25-1.13-2.4-2.32-3.47-3.57C296.05,372.77,319.51,369.87,334.06,353.78"/>
					<path style="clip-path:url(#SVGID_00000157296887716613189720000009828346294716403334_);fill:#F39639;" d="M331.52,298.12
						c13.98,12.65,13.43,36.04-1.23,52.25c-14.66,16.21-37.88,19.1-51.86,6.45c-13.98-12.65-13.43-36.04,1.23-52.25
						C294.32,288.37,317.54,285.48,331.52,298.12 M282.26,350.92c11.53,10.43,30.67,8.05,42.76-5.32
						c12.09-13.36,12.54-32.65,1.01-43.08s-30.67-8.05-42.76,5.32C271.18,321.21,270.73,340.49,282.26,350.92"/>
					<path style="clip-path:url(#SVGID_00000157296887716613189720000009828346294716403334_);fill:#F39639;" d="M286.02,310.33
						c-10.5,11.6-10.89,28.35-0.88,37.4s26.63,6.99,37.13-4.62c10.5-11.6,10.89-28.35,0.88-37.4S296.51,298.72,286.02,310.33"/>
					<path style="clip-path:url(#SVGID_00000157296887716613189720000009828346294716403334_);" d="M310.17,309.22
						c1.72-0.02,3.68,0.34,5.09,1.65c1.29,1.19,1.7,2.81,1.59,4.36c-0.26,3.78-2.87,6.51-6.19,7.84c-1.79,0.72-3.75,0.85-5.77,0.66
						c-1.85-0.17-3.71-0.54-5.54-0.41c-3.51,0.25-6.52,2.51-8.38,5.17c-1.08,1.54-1.89,3.46-1.62,5.52c0.16,1.2,0.91,2.1,1.88,2.9
						c1.14,0.93,2.36,1.16,3.71,1.13c1.04-0.02,1.22,1.59,0.19,1.61c-2.01,0.04-3.84-0.54-5.4-2.07c-0.54-0.53-1.23-1.21-1.56-1.88
						c-0.4-0.81-0.49-1.82-0.5-2.65c-0.02-3.3,1.97-6.19,4.27-8.18c2.53-2.18,5.59-3.39,9.22-3.14c1.95,0.14,3.92,0.57,5.86,0.47
						c2.09-0.11,4.15-0.94,5.65-2.21c1.51-1.28,2.59-3.4,2.58-5.51c-0.01-2.72-2.58-3.67-4.89-3.64
						C309.31,310.84,309.13,309.23,310.17,309.22"/>
					<path style="clip-path:url(#SVGID_00000157296887716613189720000009828346294716403334_);" d="M318.2,310.77
						c-0.73,0.63-1.46,1.26-2.18,1.89c-0.16,0.14-0.32,0.23-0.55,0.23c-0.2,0-0.45-0.09-0.6-0.25c-0.3-0.3-0.45-0.86-0.13-1.14
						c0.73-0.63,1.46-1.26,2.18-1.89c0.16-0.14,0.31-0.23,0.55-0.23c0.2,0,0.45,0.09,0.6,0.24
						C318.37,309.93,318.52,310.5,318.2,310.77"/>
					<path style="clip-path:url(#SVGID_00000157296887716613189720000009828346294716403334_);" d="M289.25,335.87
						c-0.73,0.63-1.46,1.26-2.18,1.89c-0.16,0.14-0.32,0.23-0.55,0.23c-0.2,0-0.45-0.09-0.6-0.25c-0.3-0.3-0.45-0.86-0.13-1.14
						c0.73-0.63,1.46-1.26,2.18-1.89c0.16-0.14,0.31-0.23,0.55-0.23c0.2,0,0.45,0.09,0.6,0.24
						C289.42,335.04,289.57,335.6,289.25,335.87"/>
				</g>
			</g>
		</g>
	</g>
	<g>
		<defs>
			
				<rect id="SVGID_00000134225032215713074340000009286769834549382844_" x="229.37" y="446.48" transform="matrix(0.9106 -0.4134 0.4134 0.9106 -186.9417 164.9369)" width="116.64" height="136.01"/>
		</defs>
		<clipPath id="SVGID_00000113349115986021735320000001148520600272225190_">
			<use xlink:href="#SVGID_00000134225032215713074340000009286769834549382844_"  style="overflow:visible;"/>
		</clipPath>
		
			<g id="Coin_00000052069276607729521790000003733350513001131956_" style="clip-path:url(#SVGID_00000113349115986021735320000001148520600272225190_);">
			<g>
				<defs>
					
						<rect id="SVGID_00000057120538753476610580000015846378495400474781_" x="229.37" y="446.48" transform="matrix(0.9106 -0.4134 0.4134 0.9106 -186.9417 164.9369)" width="116.64" height="136.01"/>
				</defs>
				<clipPath id="SVGID_00000064355900021957708210000013821696652171818676_">
					<use xlink:href="#SVGID_00000057120538753476610580000015846378495400474781_"  style="overflow:visible;"/>
				</clipPath>
				<g style="clip-path:url(#SVGID_00000064355900021957708210000013821696652171818676_);">
					<defs>
						
							<rect id="SVGID_00000098222479945346440820000011007481734927342002_" x="229.37" y="446.48" transform="matrix(0.9106 -0.4134 0.4134 0.9106 -186.9417 164.9369)" width="116.64" height="136.01"/>
					</defs>
					<clipPath id="SVGID_00000108996953995923813180000001686591047847415474_">
						<use xlink:href="#SVGID_00000098222479945346440820000011007481734927342002_"  style="overflow:visible;"/>
					</clipPath>
					<path style="clip-path:url(#SVGID_00000108996953995923813180000001686591047847415474_);fill:#F39639;" d="M247.24,532.85
						c-14.35-31.62-6.49-66.65,17.25-81.95c-2.21,0.64-4.4,1.43-6.54,2.41c-28.43,12.91-38.89,51.09-23.36,85.29
						c15.52,34.2,51.16,51.46,79.58,38.55c2.14-0.97,4.18-2.09,6.12-3.34C293.14,581.6,261.6,564.47,247.24,532.85"/>
					<path style="clip-path:url(#SVGID_00000108996953995923813180000001686591047847415474_);fill:#F39639;" d="M271.07,452.46
						c-24.05,10.92-31.81,45.59-17.35,77.45c14.46,31.86,45.68,48.83,69.72,37.92c24.04-10.92,31.81-45.59,17.35-77.45
						C326.33,458.52,295.12,441.54,271.07,452.46 M320.28,557.05c-19.83,9-45.56-5-57.49-31.26c-11.92-26.27-5.52-54.86,14.3-63.86
						c19.83-9,45.56,5,57.49,31.27C346.51,519.46,340.11,548.05,320.28,557.05"/>
					<path style="clip-path:url(#SVGID_00000108996953995923813180000001686591047847415474_);fill:#F39639;" d="M329.86,495.34
						c10.35,22.81,4.79,47.63-12.42,55.45s-39.56-4.34-49.92-27.15s-4.79-47.63,12.42-55.45
						C297.16,460.38,319.5,472.53,329.86,495.34"/>
					<path style="clip-path:url(#SVGID_00000108996953995923813180000001686591047847415474_);" d="M296.7,480.47
						c-2.39-0.97-5.24-1.51-7.67-0.37c-2.22,1.04-3.38,3.2-3.8,5.54c-1.02,5.7,1.61,11.14,5.74,14.92c2.22,2.03,4.9,3.31,7.78,4.14
						c2.64,0.76,5.36,1.25,7.85,2.44c4.79,2.29,8.14,7.26,9.77,12.19c0.94,2.86,1.37,6.13,0.24,8.99c-0.66,1.68-2.03,2.59-3.67,3.22
						c-1.93,0.74-3.71,0.41-5.57-0.37c-1.44-0.6-2.28,1.66-0.85,2.26c2.78,1.17,5.53,1.3,8.26-0.08c0.94-0.48,2.15-1.11,2.85-1.91
						c0.85-0.97,1.35-2.4,1.66-3.62c1.23-4.85-0.48-10.18-2.96-14.36c-2.72-4.59-6.53-8.05-11.67-9.66
						c-2.77-0.87-5.66-1.32-8.31-2.53c-2.86-1.3-5.42-3.66-7.05-6.35c-1.63-2.7-2.36-6.42-1.58-9.52c1.01-3.99,4.92-3.98,8.12-2.68
						C297.3,483.32,298.14,481.06,296.7,480.47"/>
					<path style="clip-path:url(#SVGID_00000108996953995923813180000001686591047847415474_);" d="M284.97,478.35
						c0.78,1.33,1.56,2.65,2.34,3.98c0.17,0.29,0.35,0.51,0.68,0.63c0.28,0.1,0.65,0.11,0.92-0.03c0.53-0.27,0.94-1.01,0.6-1.6
						c-0.78-1.33-1.56-2.65-2.34-3.98c-0.17-0.29-0.35-0.51-0.68-0.63c-0.28-0.1-0.65-0.11-0.92,0.03
						C285.04,477.02,284.63,477.76,284.97,478.35"/>
					<path style="clip-path:url(#SVGID_00000108996953995923813180000001686591047847415474_);" d="M316.05,531.11
						c0.78,1.33,1.56,2.65,2.34,3.98c0.17,0.29,0.35,0.51,0.68,0.63c0.28,0.1,0.65,0.11,0.92-0.03c0.53-0.27,0.94-1.01,0.6-1.6
						c-0.78-1.33-1.56-2.65-2.34-3.98c-0.17-0.29-0.35-0.51-0.68-0.63c-0.28-0.1-0.65-0.11-0.92,0.03
						C316.12,529.78,315.71,530.53,316.05,531.11"/>
				</g>
			</g>
		</g>
	</g>
</g>
</svg>
