<?xml version="1.0" encoding="utf-8"?>
<!-- Generator: Adobe Illustrator 28.0.0, SVG Export Plug-In . SVG Version: 6.00 Build 0)  -->
<svg version="1.1" id="Lager_1" xmlns="http://www.w3.org/2000/svg" xmlns:xlink="http://www.w3.org/1999/xlink" x="0px" y="0px"
	 viewBox="0 0 1038 688" style="enable-background:new 0 0 1038 688;" xml:space="preserve">
<style type="text/css">
	.st0{clip-path:url(#SVGID_00000098942065797427448010000003920556150022496437_);}
	.st1{clip-path:url(#SVGID_00000142166657011404406230000004424233422684719289_);}
	.st2{clip-path:url(#SVGID_00000177474083957576432260000016478444383057095080_);fill:#F49739;}
	.st3{clip-path:url(#SVGID_00000177474083957576432260000016478444383057095080_);}
	.st4{clip-path:url(#SVGID_00000103983951558477515400000013153034527609831816_);}
	.st5{clip-path:url(#SVGID_00000021117532119930985790000014065458774244315321_);}
	.st6{clip-path:url(#SVGID_00000095330106086661756680000012454468718753129374_);fill:#F49739;}
	.st7{clip-path:url(#SVGID_00000095330106086661756680000012454468718753129374_);}
</style>
<g>
	<g>
		<defs>
			
				<rect id="SVGID_1_" x="487.9" y="282.04" transform="matrix(0.9248 -0.3806 0.3806 0.9248 -101.759 246.4712)" width="168.98" height="197.04"/>
		</defs>
		<clipPath id="SVGID_00000010290506921356132380000010571289936309702324_">
			<use xlink:href="#SVGID_1_"  style="overflow:visible;"/>
		</clipPath>
		
			<g id="Coin_00000121269516014855296690000003598087201817097880_" style="clip-path:url(#SVGID_00000010290506921356132380000010571289936309702324_);">
			<g>
				<defs>
					
						<rect id="SVGID_00000174584830312853020220000004677804172620423601_" x="487.9" y="282.04" transform="matrix(0.9248 -0.3806 0.3806 0.9248 -101.759 246.4712)" width="168.98" height="197.04"/>
				</defs>
				<clipPath id="SVGID_00000044161961202422002150000003368794253384143758_">
					<use xlink:href="#SVGID_00000174584830312853020220000004677804172620423601_"  style="overflow:visible;"/>
				</clipPath>
				<g style="clip-path:url(#SVGID_00000044161961202422002150000003368794253384143758_);">
					<defs>
						
							<rect id="SVGID_00000170243869474140142940000001773332529662955447_" x="487.9" y="282.04" transform="matrix(0.9248 -0.3806 0.3806 0.9248 -101.7591 246.4711)" width="168.98" height="197.04"/>
					</defs>
					<clipPath id="SVGID_00000175321703174267660190000007925640225826907318_">
						<use xlink:href="#SVGID_00000170243869474140142940000001773332529662955447_"  style="overflow:visible;"/>
					</clipPath>
					<path style="clip-path:url(#SVGID_00000175321703174267660190000007925640225826907318_);fill:#F49739;" d="M512.88,405.05
						c-19.15-46.52-5.95-96.83,29.21-117.76c-3.24,0.81-6.44,1.85-9.59,3.15c-41.83,17.21-58.95,71.96-38.24,122.27
						c20.71,50.32,71.4,77.15,113.23,59.94c3.15-1.3,6.16-2.81,9.03-4.52C576.81,478.02,532.03,451.58,512.88,405.05"/>
					<path style="clip-path:url(#SVGID_00000175321703174267660190000007925640225826907318_);fill:#F49739;" d="M551.54,289.9
						c-35.38,14.56-48.42,64.36-29.13,111.23c19.29,46.87,63.61,73.07,98.98,58.51c35.38-14.56,48.42-64.36,29.13-111.23
						C631.23,301.53,586.92,275.34,551.54,289.9 M617.37,443.88c-29.17,12-65.71-9.59-81.61-48.24
						c-15.91-38.65-5.15-79.71,24.02-91.71c29.17-12,65.71,9.59,81.61,48.24C657.29,390.82,646.54,431.88,617.37,443.88"/>
					<path style="clip-path:url(#SVGID_00000175321703174267660190000007925640225826907318_);fill:#F49739;" d="M634.43,355.03
						c13.81,33.56,4.47,69.21-20.85,79.63c-25.33,10.42-57.05-8.33-70.86-41.89c-13.81-33.56-4.47-69.21,20.85-79.63
						S620.62,321.48,634.43,355.03"/>
					<path style="clip-path:url(#SVGID_00000175321703174267660190000007925640225826907318_);" d="M587.2,331.79
						c-3.41-1.54-7.51-2.46-11.09-0.93c-3.27,1.4-5.06,4.46-5.79,7.82c-1.77,8.2,1.75,16.21,7.54,21.9
						c3.11,3.06,6.93,5.04,11.05,6.39c3.78,1.24,7.69,2.08,11.24,3.94c6.82,3.57,11.41,10.93,13.51,18.16
						c1.22,4.19,1.66,8.94-0.12,13.03c-1.04,2.39-3.07,3.64-5.49,4.47c-2.83,0.97-5.39,0.41-8.04-0.82
						c-2.05-0.95-3.39,2.28-1.35,3.23c3.96,1.83,7.94,2.17,11.97,0.31c1.39-0.64,3.18-1.5,4.22-2.62c1.27-1.36,2.08-3.41,2.59-5.16
						c2.03-6.95-0.17-14.77-3.54-20.94c-3.7-6.78-9.04-11.99-16.39-14.6c-3.96-1.4-8.12-2.2-11.9-4.09
						c-4.07-2.04-7.66-5.58-9.88-9.56c-2.23-4-3.09-9.42-1.79-13.86c1.67-5.72,7.34-5.51,11.9-3.45
						C587.91,335.94,589.25,332.71,587.2,331.79"/>
					<path style="clip-path:url(#SVGID_00000175321703174267660190000007925640225826907318_);" d="M570.32,328.1
						c1.06,1.96,2.13,3.92,3.19,5.88c0.23,0.42,0.49,0.76,0.94,0.95c0.4,0.17,0.94,0.19,1.34,0c0.78-0.36,1.42-1.42,0.95-2.28
						c-1.06-1.96-2.13-3.92-3.19-5.88c-0.23-0.42-0.49-0.76-0.94-0.95c-0.39-0.16-0.94-0.19-1.34,0
						C570.49,326.18,569.86,327.24,570.32,328.1"/>
					<path style="clip-path:url(#SVGID_00000175321703174267660190000007925640225826907318_);" d="M612.6,406.1
						c1.06,1.96,2.13,3.92,3.19,5.88c0.23,0.42,0.49,0.76,0.94,0.95c0.4,0.17,0.94,0.19,1.34,0c0.78-0.36,1.42-1.42,0.95-2.28
						c-1.06-1.96-2.13-3.92-3.19-5.88c-0.23-0.42-0.49-0.76-0.94-0.95c-0.39-0.16-0.94-0.19-1.34,0
						C612.76,404.19,612.13,405.24,612.6,406.1"/>
				</g>
			</g>
		</g>
	</g>
	<g>
		<defs>
			
				<rect id="SVGID_00000106839062808617733420000017804750127846565024_" x="266.75" y="197.34" transform="matrix(0.3516 -0.9362 0.9362 0.3516 -25.3258 508.5948)" width="175.46" height="150.47"/>
		</defs>
		<clipPath id="SVGID_00000012456401311434849300000003493818429612473791_">
			<use xlink:href="#SVGID_00000106839062808617733420000017804750127846565024_"  style="overflow:visible;"/>
		</clipPath>
		
			<g id="Coin_00000128485983747788836870000014398114295195609221_" style="clip-path:url(#SVGID_00000012456401311434849300000003493818429612473791_);">
			<g>
				<defs>
					
						<rect id="SVGID_00000116209213346741881830000015344433918675162273_" x="266.75" y="197.34" transform="matrix(0.3516 -0.9362 0.9362 0.3516 -25.3258 508.5948)" width="175.46" height="150.47"/>
				</defs>
				<clipPath id="SVGID_00000021107663170070248410000005758553462539737781_">
					<use xlink:href="#SVGID_00000116209213346741881830000015344433918675162273_"  style="overflow:visible;"/>
				</clipPath>
				<g style="clip-path:url(#SVGID_00000021107663170070248410000005758553462539737781_);">
					<defs>
						
							<rect id="SVGID_00000029738669267625448560000013156138540597450651_" x="266.75" y="197.34" transform="matrix(0.3516 -0.9362 0.9362 0.3516 -25.3259 508.5944)" width="175.46" height="150.47"/>
					</defs>
					<clipPath id="SVGID_00000062165476955191434330000015394440351221524637_">
						<use xlink:href="#SVGID_00000029738669267625448560000013156138540597450651_"  style="overflow:visible;"/>
					</clipPath>
					<path style="clip-path:url(#SVGID_00000062165476955191434330000015394440351221524637_);fill:#F49739;" d="M300.83,252.43
						c15.75-41.94,54.87-66.72,90.49-59.02c-2.6-1.44-5.32-2.7-8.16-3.77c-37.71-14.16-82.08,11.13-99.11,56.49
						c-17.03,45.36-0.28,93.61,37.43,107.77c2.84,1.07,5.72,1.91,8.63,2.53C298.22,338.78,285.08,294.37,300.83,252.43"/>
					<path style="clip-path:url(#SVGID_00000062165476955191434330000015394440351221524637_);fill:#F49739;" d="M395.9,200.84
						c-31.89-11.98-70.61,12.57-86.48,54.82c-15.87,42.25-2.88,86.22,29.01,98.19c31.89,11.98,70.61-12.57,86.48-54.82
						C440.78,256.78,427.79,212.81,395.9,200.84 M345.37,341.14c-26.29-9.87-37-46.12-23.92-80.96
						c13.08-34.84,45.01-55.08,71.3-45.2c26.29,9.87,37,46.12,23.92,80.96C403.59,330.78,371.67,351.01,345.37,341.14"/>
					<path style="clip-path:url(#SVGID_00000062165476955191434330000015394440351221524637_);fill:#F49739;" d="M410.4,293.58
						c-11.36,30.25-39.08,47.82-61.91,39.25s-32.13-40.05-20.77-70.3c11.36-30.25,39.08-47.82,61.91-39.25
						S421.76,263.33,410.4,293.58"/>
					<path style="clip-path:url(#SVGID_00000062165476955191434330000015394440351221524637_);" d="M393.72,249.77
						c-1.29-3.07-3.4-6.16-6.67-7.34c-2.98-1.07-6.01-0.16-8.52,1.58c-6.13,4.27-8.69,11.63-8.37,18.85
						c0.17,3.88,1.46,7.49,3.32,10.87c1.71,3.1,3.75,6.02,4.94,9.39c2.28,6.47,0.8,14.05-2.21,20.03c-1.75,3.47-4.34,6.84-7.99,8.42
						c-2.13,0.93-4.21,0.51-6.29-0.41c-2.43-1.09-3.76-3.01-4.74-5.42c-0.76-1.86-3.59-0.57-2.84,1.29c1.47,3.6,3.85,6.23,7.61,7.47
						c1.3,0.43,2.98,0.95,4.34,0.86c1.65-0.11,3.42-0.96,4.82-1.79c5.54-3.3,8.85-9.73,10.4-15.79c1.7-6.67,1.39-13.3-1.83-19.46
						c-1.73-3.32-3.96-6.36-5.27-9.89c-1.42-3.8-1.61-8.28-0.64-12.22c0.97-3.96,3.7-8.01,7.24-10.12c4.56-2.72,8.12,0.86,9.85,4.97
						C391.66,252.91,394.5,251.62,393.72,249.77"/>
					<path style="clip-path:url(#SVGID_00000062165476955191434330000015394440351221524637_);" d="M384.96,237.13
						c-0.5,1.92-0.99,3.84-1.49,5.77c-0.11,0.41-0.14,0.79,0.04,1.19c0.16,0.35,0.5,0.69,0.87,0.81c0.73,0.24,1.79-0.07,2.01-0.91
						c0.5-1.92,0.99-3.84,1.49-5.77c0.11-0.41,0.14-0.79-0.04-1.19c-0.16-0.35-0.5-0.69-0.87-0.81
						C386.23,235.98,385.17,236.29,384.96,237.13"/>
					<path style="clip-path:url(#SVGID_00000062165476955191434330000015394440351221524637_);" d="M365.18,313.62
						c-0.5,1.92-0.99,3.84-1.49,5.77c-0.11,0.41-0.14,0.79,0.04,1.19c0.16,0.35,0.5,0.69,0.87,0.81c0.73,0.24,1.79-0.07,2.01-0.91
						c0.5-1.92,0.99-3.84,1.49-5.77c0.11-0.41,0.14-0.79-0.04-1.19c-0.16-0.35-0.5-0.69-0.87-0.81
						C366.45,312.47,365.4,312.78,365.18,313.62"/>
				</g>
			</g>
		</g>
	</g>
</g>
</svg>
