<?xml version="1.0" encoding="UTF-8"?>
<svg id="Lager_2" data-name="Lager 2" xmlns="http://www.w3.org/2000/svg" viewBox="0 0 595.28 841.89">
  <defs>
    <style>
      .cls-1 {
        fill: #a1c7e0;
      }

      .cls-2 {
        fill: #006f81;
      }

      .cls-3 {
        fill: #f49739;
      }
    </style>
  </defs>
  <path class="cls-2" d="m470.71,467.53v3.7c0,10.17-8.27,18.44-18.44,18.44h-26.46l-.49,1.98c-3.79,15.01-10.08,29.11-18.72,41.93l-1.21,1.81,18.63,18.61c3.48,3.48,5.37,8.11,5.37,13.05s-1.91,9.57-5.37,13.03l-10.62,10.64c-7.2,7.18-18.89,7.18-26.07,0l-19.19-19.21-1.79,1.12c-13.36,8.39-27.95,14.31-43.37,17.56l-2.09.44v26.57c0,10.17-8.27,18.44-18.44,18.44h-15.03c-10.17,0-18.44-8.27-18.44-18.44v-26.57l-2.09-.44c-14.42-3.04-28.13-8.43-40.8-16.01l-1.76-1.05-21.77,21.77c-3.48,3.46-8.09,5.37-13.05,5.37s-9.55-1.91-13.03-5.37l-10.62-10.62c-3.46-3.48-5.37-8.09-5.37-13.05s1.91-9.57,5.37-13.05l20.35-20.35-1.26-1.81c-9.52-13.5-16.36-28.43-20.38-44.37l-.49-1.98h-27.83c-9.73,0-17.63-7.9-17.63-17.63v-6.76l61.91.4c1.44,4.76,4.11,9.18,7.76,12.75,5.36,5.2,12.19,7.94,19.12,7.74l11.01.02c8.08,33.57,39.19,58.66,76.25,58.66s68.14-25.06,76.24-58.63h8.5c5.21-.07,10.62-1.47,15.26-3.93,4.62-2.48,7.95-5.39,10.85-9.46,1.18-1.67,2.25-3.6,3.16-5.71l62.03.4Z"/>
  <path class="cls-1" d="m406.07,427.79v24.88c0,3.13-.67,6.74-1.81,10.13-.04.11-.07.23-.11.33-.02.16-.04.33-.05.49-.02.19-.05.37-.09.56-.21,1.18-.61,2.3-1.26,3.28-.11.21-.25.4-.4.58-.19.28-.44.56-.68.81-.4.72-.83,1.4-1.26,2.02-2.46,3.46-5.18,5.83-9.15,7.95-3.9,2.09-8.52,3.27-12.91,3.34h-8.25c-.18.04-.35.09-.54.12-.54.11-1.14.16-1.76.16-.79,0-1.55-.11-2.23-.26-.02,0-.05-.02-.07-.02h-27.43c-11.38.14-17-1.4-22.23-6.23-1.95-1.77-3.85-4.21-5.88-7.55l-8.02-12.15c-1.11-1.84-3.35-3-6.29-3.28-.44-.05-.88-.05-1.35-.05-3.07,0-6.81.91-8.81,3.14l-8.38,14.03c-4.92,5.5-9.46,7.99-15.98,10.57l-12.34,1.53-25.78-.05c-.39.19-.77.35-1.21.47-.42.12-.86.23-1.33.28-.14.04-.3.05-.44.05-.3.04-.61.05-.93.05-.16,0-.32,0-.47-.04-.16.02-.3,0-.44-.02-.16,0-.32-.02-.47-.05-.44-.05-.86-.14-1.26-.26-.46-.12-.88-.3-1.28-.49h-8.85c-5.64.14-11.17-2.09-15.54-6.32-2.16-2.09-3.88-4.53-5.14-7.16-.46-.6-.83-1.25-1.12-1.95-.12-.32-.25-.65-.33-.98-.09-.28-.16-.56-.21-.86v-.04c-.11-.58-.18-1.16-.18-1.76-.11-.54-.21-1.11-.28-1.65-.16-1.02-.25-2.05-.25-3.07v-61.38c0-5.14,3.37-10.04,8.59-12.47,2-.97,4.2-1.46,6.5-1.47l16.86-1.12,34.24-1.09h114.16l18.07,1.04h.11c6.41,0,13.05,2.81,17.79,7.53,1.32,1.3,2.44,2.72,3.39,4.2,2.04,3.27,3.13,6.88,3.13,10.53v23.7Z"/>
  <path class="cls-3" d="m449.14,398.79l-.81-.16-.58-.58c-2.11-2.11-4.23-6.16-4.28-10.5-4.85-48.11-36.91-92.51-82.22-114.44-.33-.07-.86-.21-1.44-.39-.97,5.65-1.4,11.62-1.84,17.42-1.23,16.45-2.49,33.47-15.17,46.28-1.58,2.19-3.99,3.06-6.5,2.3-4.69-1.42-8.71-8.2-8.71-12.76,0-5.3-.11-10.55-.23-15.63-.33-15.5-.65-30.13,1.98-46.04-.07-2.86-1.47-7.2-2.95-10.32-16.91-11.94-36.84-8.52-56.12-5.21-1.49.26-2.98.53-4.48.77-5.83,1.51-8.45,7.6-8.45,11.47,0,8.39.58,16.66,1.12,24.65.83,11.89,1.69,24.16.63,36.91-.05,6.83-4.65,15.94-10.57,17.58-1.53.44-5.41.9-8.38-4.04-10.55-18.1-12.31-37.42-13.99-56.1-.18-1.91-.35-3.85-.54-5.76-.04-.21-.09-.6-.19-1.55-43.75,21.75-72.92,57.59-82.26,101.22-.53,2.63-.74,5.3-.93,7.88-.25,3.14-.5,6.2-1.34,8.86h-.35v.99c-.76,1.93-1.89,3.61-3.68,4.92-15.49,11.29-23.04,22.68-25.2,38.05.6.51,2,1.09,2.58,1.09,20.84,0,42.35,0,63.16-.9v-4.95h0s1.32-38.08,1.32-38.08c1.81-4.44,5.41-8.25,10.17-10.46,2.63-1.26,5.57-1.93,8.45-1.95l16.79-1.12,34.4-1.09h114.39l18.07,1.04h.14c7.66,0,15.42,3.3,21.16,9.01,1.74,1.72,3.21,3.6,4.41,5.58.06.1.1.19.16.29l3.14,8.32.5,26.42h-.2v6.67c20.28-.51,42.02-.53,63.21-.53.67-15.52-7.22-32.04-24.35-35.15Z"/>
</svg>